<mxfile host="app.diagrams.net" agent="Mozilla/5.0 (Windows NT 10.0; Win64; x64) AppleWebKit/537.36 (KHTML, like Gecko) Chrome/114.0.0.0 Safari/537.36" version="26.0.11">
  <diagram name="第 1 页" id="yqIkj9JEiuOmQZ1i-cwE">
    <mxGraphModel dx="1434" dy="1933" grid="1" gridSize="10" guides="1" tooltips="1" connect="1" arrows="1" fold="1" page="1" pageScale="1" pageWidth="827" pageHeight="1169" math="0" shadow="0">
      <root>
        <mxCell id="0" />
        <mxCell id="1" parent="0" />
        <mxCell id="ahwBtEAhp_Now27oy8xf-16" value="" style="shape=image;verticalLabelPosition=bottom;labelBackgroundColor=default;verticalAlign=top;aspect=fixed;imageAspect=0;image=data:image/png,iVBORw0KGgoAAAANSUhEUgAABesAAAMhCAYAAAB4xurYAAAgAElEQVR4nOzde3SV9Z0v/jeCGI5Cg2Vq8Fbi5VTsRWMdKkztD9PpmV/xKAdYrVZ+9TI64gyd9lQd5zg6GBkvq622p53aAav1Mgut7RIHPdI504qe2gHBlmAvUo8XqIoJLUoqMERu+f2xc9kJSUgo8KB5vdbKMs+zn8t37yS49/v5PJ/voN9vfKslAAAAAABAYQ4oegAAAAAAADDQCesBAAAAAKBgwnoAAAAAACiYsB4AAAAAAAomrAcAAAAAgIINamlpaSl6EAAAAAAAMJCprAcAAAAAgIIJ6wEAAAAAoGDCegAAAAAAKJiwHgAAAAAACiasBwAAAACAggnrAQAAAACgYMJ6AAAAAAAomLAeAAAAAAAKJqwHAAAAAICCCesBAAAAAKBgwnoAAAAAACiYsB4AAAAAAAomrAcAAAAAgIIJ6wEAAAAAoGDCegAAAAAAKJiwHgAAAAAACiasBwAAAACAggnrAQAAAACgYMJ6AAAAAAAomLAeAAAAAAAKJqwHAAAAAICCCesBAAAAAKBgwnoAAAAAACiYsB4AAAAAAAomrAcAAAAAgIIJ6wEAAAAAoGDCegAAAAAAKJiwHgAAAAAACiasBwAAAACAggnrAQAAAACgYMJ6AAAAAAAomLAeAAAAAAAKJqwHAAAAAICCCesBAAAAAKBgwnoAAAAAACiYsB4AAAAAAAomrAcAAAAAgIIJ6wEAAAAAoGDCegAAAAAAKJiwHgAAAAAACjak6AHsrxofuTLT/7G+fXnqTY9l5qm7d6ymdU2pHFXZhy1XZeFX5mdl2+IJU3PFWdW7d9JeNDeuTP2SxXn01epc+de16cvI9lsbG7Pyl4uzeH5DTpw9M+Mrih4QAAAAAED/Cet7snFVFv1wUfti7ezdOEbTytw3+3O54mub87kli3LNabtKkhtTf9WVubZtcfaEPRvWv3Bnzjz9kixsbFsxKdWfrM3Fx/XnIM1p/OniPLthzw0rSUYePyE1R/YvaV/5jxNy4ueXtC9fPH56xk/p36WHVY/cmvm/7tcu/bOXLrgAAAAAAO8swvq9ZlXu+/MTM/2h0tK1X7w1tT+8JuMP6S0gXpXF5YtL5uXWryzubsNk1IRcfNH4/lXFH3dmpp+eLPx+24qFue2h+lz8NzX9OEhTFn3545n+/V1v2R9T72vIg5+p6tc+Yz95cSZlSRa2Lt/57QdzzZSL059ovHHFlblyVr9O2z97+oILAAAAAPCONCDD+uZX67P4+fW9btO0sqnT8qr6RVm0uffjdq4Or855X74j8x66pBQmP3Vtps4en1Vfru17QPyD23LlD3p47FPzMv2i8WUDXpI7v704TT1s3qYhY5OORjup/+q1uTK1Gd3bTvu8Orw+t/2XKzN/l9ttzqryxR9cmzNr78voXf5W1+SKe2/JpP5dGwAAAAAA2GsGtbS0tBQ9iH2t8f5pGX3erqPg/uquOnzVt8/MMZe21X5X5Yp/W5WZzbf1WFm/6Krb2ivF88mZueWMHkLyrpX1r96XaUdN70PAvRtmL07L37ddGGjMfZ8e3VFZXzU2tR/cOepv+MWirGxrt3Pc+NRWD+uyxeas+uGS9rC982u3JDcOmtDRDmiPm5p5rzyY845MsrEpTdv6sMurD+biD17S/vpes3B9rhzf6x4lQypTecjujxQAAAAAGBgGZGX9vlT9Fzfklu8szJVPJak6MWlqyOhPXZxJhyxPw05bV5TVvCc5cmxqTh3bzVFH5sTxNfvHxLCnX5t53zsvnS9RdAn0z781j/1912R7bwfyfXRIZel17Gto32cVqaw02y0AAAAA0DfC+r2uJjNnX5NFPzgxt8w6L2Mrk2RJ5td+fNdB9bc/l49/u7sHyirDezjneVdPzykjd3/UnZywr/vFjM8V69dnZvmq5vVZ3zwyIyuTxV8emTNvLq2eevuzufNTpcr+hu9fnBMvba19v/rRrL9qQo9nqOhypWPJ10ZmQj961984aWRu7G2DT81Lw04XMQAAAAAAuieszw1Z3HJNutZ9d22Vc8OSllxzWtd9+1YdXvGJG/LoJzqtSeUnalO705adW8N03z4mSapT2etPrjpn/tUVvYT5SdKcplebU3FkZfbH+u+KyrJxNS7MteddnDuPvDWL7z0vI8tfkkNGprKylLw3l7ebGTYylZUVWfIPZ+ba9Rfnm+0XSgAAAAAA9j/C+kLUZOa/Pda5cjzJTuF/t+1j+mlbUxqbKlI1qjX6fnVRbr3p1tz50MKsbLwij22+JbVd0vol/3Birlg1KdM/UZsJ42tTM6aXOP/70zN60PTexzBrQgb1o2q9Q3NW3n9tPnf5rVnUmCTTMyHJrWP6su/6rPz2xZk6a1Easygn3n9nrvnOvNzwyT7Uup98Xq4575R0ujFh/fLMu/m+1LcuTvrLW1LbZTqBVY9fmdt6mhAYAAAAAKAXwvpszvqmpjR1Wbt+Y5et1jelqetGWZ/N3R6zS8/2VlPva8htmdn3yW13EXJ3N6Ft+3hfXZL77vpmbvjWfVn5yQez/jtTS73ZK5qy8p8WtvbGvzXzf3htas8qLzmvz+L5K7NkxcosuevW4tq5NC7KrZ+/JFd+f1XHuqraTJ8yPlW/7MP+W5MMGZb2IvzGRblx0ujcd9EdefSrF/deZX/8mfnc33R5zq/el8VlYf2E86/IFV3utFjSLKwHAAAAAHaPsD435syRvXYfL221qx7l+5tfPJjps+4rfX/XnXnw76bm4uOSjJqQ2k8ld7ZeSLjtB4tzw1mTOiarfWF5Fq7oOEztJ8bv86C+6ZHP5ZSzb0tZTJ+qM67Ibd+5JVPHJEv6EtYfODJjL7ojz46vzZUXTc9tT5VWr7rrkpz4g/m55ZF5ueLUHhL7J2/I9P9yZ+d12xrybNninV/8eBYN77zJ5lUBAAAAANgtwvp9rGrKnVm//s5db9gXXWdJLTPsjEm5purW3NiYJAtz7XcWZfpNtalIVWqnTE2+31rd/08Ls/imSZnUeqjGpxdmUftRajLpj6t3OnYnU+7Is9+ZltGdVjbkwT8/MZc81LrY7WSvi3PLyDO7vQBSedYVueGzD2b6Pzcmqcqkm+blzr+pTdVu/LZWnHBevvnDmkz4u4sz/R+XlFaOmZAJJ/RSWt+4MosaV/Z63FVPLYpsHgAAAADYU4T1e0Vlaq96LI/9ZbLy/o/nc98ue6iiMpUVSf0/fjxXPrJ7R6/563m55axd1LtX1Gba5TW58apS45bGm+/LwstrM3VUUvXHk1Kb+a2h/G1Z+OQNmXRWZZKmLH+yrEXPydNTe/IuBjNkWEZWVqZz9N2cYeW/WcM6JoHtMDLdTZ1bUp3zZt+aR19dnDO/fG0mHVeRbOxoVVT92Zfy0mfanmdFmlr7E1Wcfkteev6W9nE1tfctGp1JX16YZ2uuzJm3V+WOR67J+PLJaLvSsx4AAAAA2MeE9bkhi1uuSddpXBvvn9apt/wNS1pyTZce5TtNCNuuIlWn1qYqybCfdH/W5qZFWfTD3Rtx5UV9265mysxMuuqSLEyS3Jk7H7kmUy+qTo47JZNOTha1tru57cnlueWs2lQ0L8+if+rYv2rqhNTs3hD/cGPOy7xF5yVP3ZhBI3d+hftr6n0NefCiO/JSX147PesBAAAAgH1MWL8/6K6Su5P1WX7fjblvRY8bJOsadm7Lclxtpn4yWdgaIC/8xvzUX3RFalKT2vNrkhWt0fNXFmbx7NrUrliSeWW7Tz+tD1H984/mm19p6DL29Vn+fNniknm59SuLu+y4Kl3X7De6e07rl3d6fRffe2tufbLzbquW7IOxAQAAAADvSML6/UF1bab/Rde+7+UaUrlkF2F9c3N71XdSnapRpf9O+4uLc8kPWnvkr5iXRSuuSM3JSc34aalKfRqTJPOyZMUtGfbDb7YuJ8kVmXR6xa7HvuK+3Ljivt63+cFtuXJ3K86HVKb2E7VJw7NZ9Mu20VVl7BknZnQvv72bVy3Kkhc6liv685veh+e08J+ubL1jAQAAAADgDyesz7WZMGjXbVauHT+om3Y3e8hDl+TEhy75gw7R9LuGsqWRGdaas1eeMTUzc2duS5LU55bvLcrMk2tTcfL4TE9ya5JUjcyqVfOzeH5HVJ+/rM0pfcjq97pTZ+axf5uZrFuYz33wzNzWmCSNaR5za+64/bxUd/Mb3PTDazPt/I5pcqs+Oy83fGoXPf4BAAAAAAokrC/Cti7LVWNT+8Ge6+qTpOEXi7KysefH1zeu7Fj4RFVHv/XK2kz9m+S2r5QWG2+en0VX1WZS5SmZ/m+PZvrxtakZU5G8cGc+Xla5P/OTE9J1StjWkWRVefuX48antnrnqWI7jbfbbTZn1Q+X7Ny6pyejJuWWh27I8vHXZkmSVXdNz4R1qzL/O9dk/KjWbbatyvyrLsnMry3quEPgtBsy/1vnpbr7o7Yb//ctafn7JKvn58o/n5l5R96QRd+6OGPbJqL9ybUZdPqNrQu1ueP5x3LxcZ2PseQfBmXCrL4+IQAAAACADsL6fan52cy/fHoWnfFgppevP/3azPtelwlNO2nMfZ8enenf7/HAWfV8RyV5qkamIxqvyIRPXpOqr9xYCrCrFqX+l82Z9NHK1HxiUscZnl6YjiPMzKTTu4/q07w+68suGtT81W157Itde9t3Ge/5t+axv+86hW9Pk/P2rOK0azLve6vy8U/fmVVJGh+5NhM+uChXfPWGTKtYlFuuujbzy1rf5LRr8tgj12T8IT0dsYuNS3LjZ6bl1qeS5JKcuGRhbrn9tlxxRmUWLbyzbMOaVB+58+5jP/VYHvto68LwE3u42AEAAAAAsDNhfa7Jo+uvzIQuaxu+f3FOvHR+x1YL1+fKrnlzFueWkWfmxq6rezD/zz+e+Umm/nFz5we+Pz2jB03vdp++WZn6H3YsVY2t7hT8V4w/M5+7aFiqLz0vU0+t7qZ/e2MWPdTxXHNRbSb0lDS/uqqsN35SXdX7HQF7WvWn7shjD1dk+tm3ZUmSNC7KredNKLXzKd/uojvy6DfKKuP74pDxueaRx7L509Nz4+ONyQvzc2Xt/Nx22vjkqV23CKo8oTa1J/T/OQEAAAAADMiwvvL0a/PYopmtS6NzSmXlTlXQzV1C3mEjK1O5U4A9IdMXPZba1qWRx/exlnrb5n6Nd5deWJ6FZS1sph03Ok1NTWUbjM3Mr45NkjRvbEqXSwVJ06IsKqvaP+/0sUlTU9qPMKQyla2vR9PK+rIK/OSU6t3vBb9br0JzU5oPmZAJn7wtS3qatPaEqZk6fmSa1zWluaKyf5PLjqrNDf+2OKdcPj3T/nFJkmTVU0s6bVI7qjmrVjeluqoylftDX38AAAAA4G1vQIb1FUfWpLabNib9V5mxZ9RmbI+PN2V9Q9d1VWna2CUun3JHnv3OtPRco96QB//8xFzyUPePrnpyflmAXpuapjszcuTuT4d735+fmPv+vGzF7MVp+fvxSZqy6KHbyh44L2PH9PGgLyzMrT9oytgPVKUiTVn5z7f06Y6E5qZVWVlfn+U/XZwl8+fnzqf60OX+1/Nz66Xz26vtq0+rTfXYmkwaOzqVx9WkujIZeXxtasp/BzY2pWndqixfuTIrlyzOoqd7niBg0T9Myyn/0LrQOt9A5XHjM6F6ZJLKVJ9a3XHx58DqnPLRai1xAAAAAIBeDciwfp9ZvTB3/lPZclVtrvjWHbllSnWW/EPZ+iHDMrK9ur8pKx9fnoYMy+ixYzO6IllfPz/zewjq07wk931jYcfyyZNyygd3qp3fM154MHfeVbb8idrU9LWw/siKNHx+eq7s4eHy6vemH1yb6bPvy8K+BPOpzqS/PC8125bkzm+XTSxbZtVTi7LqqUUdFzSqZubRX9SmJk1ZePmEnPm1ld3s1UeNK7OocWXyw0WZ383Dk25/KY9+tJsHAAAAAADKHFD0AN7RxtRm+mdb0+zjLs4djz+aW6ZU72Kn5tT/08fz8doJOXH0yIwcOTLH1F6bjjh+fGo/WJaQD6nK2NM7mulP+vzUdJ3udU9Z9fSilMfaNZ88Jbt6Nu0qTkntX/bwWNXMTD+j4zlVfvLiTB3Ze1BffdrFueG+xWnY/FIe/dYNueH2x9Lwu2fz6HeuyHkf6P0KwvirLs6kUUlSmUmX35Dzetv8uEmZ+Y3H0rB+fZ5dNC+3/OWkjO3rBYqTb8i1n+3zKwQAAAAADGAq6/eqqkz91vxc0zQvE77xzUzqU8uYqoz/RG3y/UXdPFadi79zZy7+QNmqIdWZ+o1FefaDF6f20mG5+KzqpPKKrF8/s5v9d9OQUs1/9Wfm5aUzLs6tn78kV36/Jld+qufLApVH1qb2E20LFUkqM7amNunU8b4qY8+anmu/fENreN6mOtNn3ZDbfnBtx2S2VWNT+8lJOe+s6an9RE2qu5s4dtTYTLrolky66JbcuW5l6p9cnEd/uDBL6uuzqK1Kv2pmrv1s2biPnJo7v39NVp5+Y+u5qjL2jDMzaUptJn1iUmpP6GhgU3XGeRl7xnm54ltt7XlWZuUvV6bhlZVZuGJV0vBsFv2yrba/KjNnz8x4Pe0BAAAAgD4Y1NLS0lL0IPZHza/WZ/Hz69uXR3+wNmNH9bJDf21sStO2toWKVJbPVLqteee+9kkqKivTW/bb1NiUyqp90R29KateSKqP6+e52p9Xl+fbrcYsumtRmsfW5JQTqlP1B8/k2pympuas35hUH7nTdMJZ9dTiNFWdkrFH9nNC2p7O1tSU7OLnBQAAAADQRlgPAAAAAAAF07MeAAAAAAAKJqwHAAAAAICCCesBAAAAAKBgwnoAAAAAACiYsB4AAAAAAAomrAcAAAAAgIIJ6wEAAAAAoGDCegAAAAAAKJiwHgAAAAAACiasBwAAAACAggnrAQAAAACgYMJ6AAAAAAAomLAeAAAAAAAKJqwHAAAAAICCCesBAAAAAKBgwnoAAAAAACiYsB4AAAAAAAomrAcAAAAAgIIJ6wEAAAAAoGDCegAAAAAAKJiwHgAAAAAACiasBwAAAACAggnrAQAAAACgYMJ6AAAAAAAo2JCiBwBFamlpyZtvvpnm5uZs37696OEAAAAA8A4yePDgVFRUZMSIERk0aFDRw2E/N6ilpaWl6EFAEVpaWrJu3boMHTo0Bx98cIYMce0KAAAAgD1n27Zt2bRpU7Zs2ZJRo0YJ7OmVNjgMWG+++WaGDh2ad73rXYL6gaRxTdEjAAAAAAaIIUOG5F3veleGDh2aN998s+jhsJ8T1jNgNTc35+CDDy56GOxr8/85+etzk5dfKnokAAAAwABx8MEHp7m5uehhsJ8T1jNgbd++XUX9QPTyS8mzzyQXnZnc8dVky1tFjwgAAAB4hxsyZIj5EtklYT0wsKwta4Nz/7dLof3TTxY3HgAAAACIsB4YaLq2v2lck/yPS5MbrkjeWFfMmAAAAAAY8IT1wMDRW5/6xxeWquwf+e6+Gw8AAAAAtBLWAwNHeQuc7mx8M/mf15uAFgAAAIB9zuyawN6xcUPy4sqiR9HZ0//et+3aJqD9zF8k589Mhh60d8cFAAAAwIA3qKWlpaXoQbAf2R8D1sY1pa89bMOGDRk+fPju7fzic8mmN/fsgP5QK5YVPYJ3pqojkv9+XfLHpxc9EgAAAOBt7LXXXsvhhx9e9DDYj+29sL5xTfctJ95YV1x7CQErsLvOmJT81dXJoaOKHgkAAADwNiSsZ1f2n8r6niq6t7xVaknRnZ8/3f36Z58p7QewJx0yIrnki8lZ5xY9EgAAAOBtRljPruw/Yf2+8OwzydZuQvwXfl2aWLKrV1Yl69ftvH4vtWUB3iZOPCn5m5uSo48peiQAAADA24Swnl0ZWGH93vbGuuSVblr8bNyQbQv/Z7b8n98lH3pfkmTQz59LDv9QDjrqrRzQdfve7iYA9h8moAUAAAD6SFjPrgjr97HNj3wxG2cfl4qnZ6a3qU0bHq1L3cMNndaNPntyTnngnjzfzfbHNG/IUR+elFOrujzw4nPJ+lVZvfqtDH/3lmzI8Ax9/a38UUVzDnyjm7sGgP4xAS0AAAC8g6zNL5b8JhX/+dQc/+6dSmzb7Xj9+fz0/zbnveM/mMP6eGRhPbsypOgBDCgrbsvGH9XmkG+/nI1feCRDvn5WhvW2/Ycvy9xLa8pW1GfOw2Mz9uyqLFjzkbLH6jNnxoIcdMHnkq5hfetjR3+7LjU/q8vdmZG6wxdkxtMf6XLsVi+/lKxfl+f/163591EX5sLT3l1a3976Z2Oef+KJrDliYiYef0iy/vVu7ybY/JtnM2z9xr6+MvD21bgm+R+XmoAWAAAA3hEOy9jj38iylSsytObkvPfgnQP7HZt+kxUrf5fhJ4zrc1APfSGs32ca03TXIxl80b9m2MmNeStfylu/PSvD3rMbhzr86Ix+eGnqU5OaJGlsSGPVuEzuNqifk1w2N5OqkvY6/ZrLUvdaXWbcnp0D+6OPSY4+JhuXVmb1EScnJ40urT+pbYOGPP/Sqiwbd0Emnjm6xyE2PVqX/75mcun4jQtTd92yjLu+LpMO/U2WXnVV1n70ipx9/OtZetfdrd8nWbGs+4OZSJi3g8cXJk//JLn1nuS4E4oeDQAAALCbhowam1Oqn8lP61ckHz4l7y2vtt38m6yofyWDq0/N2FGiVfYsv1H7TFUqv/6vZd9/bde7/GxOZswofVtz2dxc1parj67JuKoFWVqf1NQk9Q8vSMbVpVN03rgwddctSM6uS103BfSjz6zLZbfPyIzrJqfu+knpOXbfPaMPr0qWNaShsSFzr1uQqtYLBsnQvP6uyrx27LjkpIay75OcNG7PnPyFXyebupkw+OWXSvMKtNqwYUOGDx+erH0tWdvNhMFvrCvtA33xJ39a6l8vqAcAAIC3vYojTsqp25fnpz9b3hHYb/5Nlv/sleToU3PSERVFD5F3IGH9/uzDl2XupVVZeF1dXu70wOjUjBudBU/XJ6MbsuBnNZl8aVncXj8nM+bUZ/TZdanrpfq95tK5uez2Gamb8XIum3tZusn0d1/NR1IzZ07qrutyoWFf6Cks7XIxYMNrr2X47vQJa51IeMNvfpUXt4zKyccflmz4TX79q6aMrngr7+q6/YaG/L5+ZQ6qHJ6Of8abs6HprQxf/Vz/z8/+5eRxycWXJyeetOttAQAAgLeNiqNPyalZnp+u+FWGjj00b6wsBfWnHC2oZ+8Q1u+nGtc0dLOyIY2pykeqktFnTk7NjDmZ8bNSGN6ehTcuTN2c+taAvD5zZtSlvtNB6jLj4bbva3LZ3Lmpe7QudTPqMvn6utbq984aHq3LgsPr+he41y9NfZLRZ3fs1/BoXerWTM7c6+f240D7oUNHJYeOyrah29K0+YjkpPcm64fnjW1r09jtDh9IPjAt1RNPyXvb1/0mzz+xJsNOmpCxI9dn5eJnsnbLiI5tnv3fef7p1zL02PfnvcOTtc+vyLqhx+b9W9ckG99Mft+Q1W8emKqjRpUuALz4XMfdBM0b0vTW4Bzyrv+UIV3uJmAPOnlcqZJ+T90RAgAAAOx3Ko4+OR/aujwrVjyf/3TUyYJ69iph/X6pIQ1rkpr/VpOyTvNp+NmyNHx4cmswX5Wjq5L6rulw1aTUzZ3UulAK49v3f7QuczNj52r7M+sy98zuxtGYhdfVZUFjTS7rc77e0LrP6Ew+uyYLHl6Q+jNLVfuNaxoy+ohurgbsdNpSC5+qfV2Rv7teXp7lm4YlGdElkG+1fmUWP7O5y7r/SHOSYUl+s/yZrM1hOWni2Ixse/zEP8vQ5iey6s3/yKr1SUZ9IIedNCHtG7y8PKtfHZZ3TajKqsXPZO17P7DLYY44ZmJOyfI88eqw1BwzIu/6xRNZ8buhOfb9FWlcsa50YWDruuQX/57V699KBh/ScTFg08bkxZU7H3TLW6W5AwaS48aWQvo/+XjRIwEAAAD2ugMy4thTctoR2zKkYmh2nm4W9hxh/f6osT7LGkdnXKdMvT4LHk4mX1/T3uam5rK5mVtTnzkzZmRG1Z7sPV+6WNDwszlZdnZd5vbSSqfzuDv65LftM3rNjMy5bmHqrq9Jw5qk6o/3dHf8gr25Kk+kOhOr/yOL1/Ztl/UrF+eZtclhx4zM+mcWJydNzMSRO2/33lMm7hz872Rkxk6YmLHlq14uBfInTSgL/1v9ZvmbScW7866qI5ItY9N08LC8MXR91nzwQ5l4yoisXPwfWXvq/5eTJoxNVi7OU2u3lEL+o3sfxW+WP5HXR5Vtt+WtZGUPIX5PEwmv/HmytZsJg1/4delugqJVHZH81dVCegAAABhwDsjQiqFFD4IBQFi/P2p4OQ0fnty5Jc3TS1P/4cmZ/LO6zHi4KpfNbWt9U6qer9+jvecb83Lj6B7b4vSoU1V/SUdf/AVJ1eTU1bS2w3m47Y6Bmp2r57s5zv5nfRrXlwXZ67tWnf8my59YlfaIeUR1e/D+5ubksJMmZOzIJEevz8rFT+SJLX045YjqTDwlHccd8e6dwvhdjfk/mofmsLHllwA25/X1yWFjk+VPPJPmw07KxLGtRx07IROrVmbxM09k8aaTMmFsP8429KCe28PsqbYxL7+UrO+mxU/jmtJXVyt/njz9ZP/PU3VEqZL+z6b0f18AAAAA6KNBLS0tLUUPAorw2muv5fDdmWCWt6d/fyyZ9bm+b3/oqOTcv0imnb/3xgQAAAAMGLIodkVlPTAwHHZE37Y7ZESpkv6sc0p3CAAAAADAPiCsBwaGo6t7f/yQEcnUzybTLkgOGb5vxgQAAAAArYT1wMAw9KBSa5s31u28ftr5pZY3QnoAAAAACiKsBwaOo4/pCOuHHpScdW5y7iWlEB8AAAAACiSsBwaOo45JVixL/mxKqS99VR/72AMAAADAXiasBwaOMz5ZqqQX0gMAAACwnxHWM2ANHsmXeFIAACAASURBVDw427Zty5Ah/gwGjJPGFT0CAAAAYADatm1bBg8eXPQw2M8dUPQAoCgVFRXZtGlT0cMAAAAA4B1u06ZNqaioKHoY7OeE9QxYI0aMyJYtW/L73/8+27ZtK3o4AAAAALzDbNu2Lb///e+zZcuWjBgxoujhsJ8b1NLS0lL0IKAoLS0tefPNN9Pc3Jzt27cXPRwAAAAA3kEGDx6cioqKjBgxIoMGDSp6OOznhPUAAAAAAFAwbXAAAAAAAKBgwnoAAAAAACiYsB4AAAAAAAomrAcAAAAAgIIJ6wEAAAAAoGDCegAAAAAAKJiwHgAAAAAACiasBwAAAACAggnrAQAAAACgYMJ6AAAAAAAomLAeAAAAAAAKJqwHAAAAAICCCesBAAAAAKBgwnoAAAAAACiYsB4AAAAAAAomrAcAAAAAgIIJ6wEAAAAAoGDCegAAAAAAKJiwHgAAAAAACiasBwAAAACAggnrAQAAAACgYMJ6AAAAAAAomLAeAAAAAAAKJqwHAAAAAICCCesBAAAAAKBgwnoAAAAAACjYkKIHAEXa3rIjv9zwu7zavCHNO7YVPRz2ExUHDMmRFcPzgeF/lMGDXNMEAAAAYO8b1NLS0lL0IKAI21t25P+88XLefeCwHHfwoTl48IFFD4n9xKbtW/PCpjfy+tbN+X8OPVpgDwAAAMBeJ6xnwHrmzbVJkpNGHFbwSNhf+R0BAAAAYF9RLsqA9Wrzhhx38KFFD4P92HEHH5pXmzcUPQwAAAAABgBhPQNW845tWt/Qq4MHH2guAwAAAAD2CWE9AAAAAAAUTFgPsKc1ril6BAAAAAC8zQjrAfa0+f+c/PW5ybPPFD0SAAAAAN4mhPUAe1rjmlJQ/9fnJv/z+mSjSWoBAAAA6J2wHmBPW1vWBueR7ybT/7T0XwAAAADogbAeYE/r2rN+45ulCnutcQAAAADowZCiB/CO17gwdf+UzLh+UkZ383D97TOy9I/n5rKa8pVzMmNOfTdb12Ty2Y1ZsGxc6tqP15CF19Vl2bi61J05uuOc1y1IQz+GWXNZlzG0jm3BEW3Hrc+cGXOSbrbrXWl8Cxp7PXsum3tZ+nXYt5G3Nm7JQYcM3WPH+/nyO/Kjykty+THdPPjbxfncS0ndaRMyqnzdc8/mJzttPDzXHTo817+R3Hv6pHyo7Pjn5/SsOOV9nc55/qZ+DPLAE/Oj8jG0j6Mpl7aea92vHsifbjhq5+12Yd2vHsifvtF7W5nzj+jh9dkXNm4ohfPdaWuNc9a5ySWXJ4cM37djAwAAAGC/JazfDRu+8f/mreq7M+qsql1vXDUpk4+YkboZyzL5+rpMKt+lfk7m/Kwmk89uSMqj/JrLMveyOZnxL0eXQvnGham77uVMbg20a1KXuttHZ+6lNUn9gizI5I6gvvWcdXMn7TSU+ttnZE4uK+23S/VZ+rPRGXd263Hrl6a+anLqetu1u4sEVZNTd/3ctI2m4dG61HW62PAOt25prli5OmeOPSef7E8i3YsPHXlibn/ujpzc1DlQT17PQy89mww9vfMO75mQbyZlQflz+eqTK1L9vnMy5T3JlJcW5uSnFpdC898uzu2bDs+9p7+v0yE+dMolWdF1IL9dnM8990o+3nqcXVn3u1fyk4NPzjdbx/rkhg05/z29BfWv56GnHsr1W8vXDc917zsnK96/e2PYJ7pW1Xfnke8mjy9MLvliKbgHAAAAYMAT1u+mA47qQ1DfqubSubns9hmZ83B9JrUF5Y0LUzencecAvw9Gn1mXuUmS+syZ05jJ11+254Pv+qWprxqXyVVJ0pCF/1KfNNanbsaC7revmpy661svEnS5uNChIfXLGlLz3wZIUJ8kO7YnSZp37MFjtofvK/LQb9/XHlL/fPlDuX5o1wC/D46ZlBXHJG1h/zFHXNJeZb/ntIXzrWN7aWkphF9zR+7tIds+/4hLcvlpl2RKa2i/6j07V8u3XwDYX4L6pHO/+t60tcb5t39J/vLq5MST9u64AAAAANivCev7rDFNX7gwWxePzeDPjk1+fFt+9xePZNCsnivs62+fkTk/K18zJzNmdN5mwXUz0hZ/79SKpnFBWThe02N7m/rWY3TXymb3lML50eMmZ3SShkfnlqr3505KY6fWOH082qN1qXu4bNRzZqT8Zdhz436H66adzU+euyPXP1e+0ZM5+cknS9/u1IrmtZz/5B2t3w/PdXkuX33yydzb9TytAfpHD52Sb77/3Xtm7C8tzfVbD8+9xyTJc/nqmtdKYfwhnVvj9MlOr0PZc06Sg3fjgkUvhr/2arK2h7Y23Xnm6f6dQGscAAAAACKs74eqVH79X9Me2h97Qf7o6Zm97lFz6dzWCvgyPVadd3fKyZ3a4HRqb9Of4/RX/YIsaGxtzNO4MHMfTia3tq3ptfV8bz7cXfudUj/7l7tu23pRokqI39l7JuSb75mw0+qfL78jtx/Ul2D98Nbe9KU2OMn7cvnp78vlSdKlNc4e07gmWbsyTz67NKduG5VDRizLS88/mmfzodwxYlnyynM5/uWNOWTEstL2GzckL6zscpDNGfvqylQd3JyMTLLplUx6vTl/f/TxOWzrlmRlx4StWzf9Ns/s+N/J8P/U85iefSbZ8lafn8J/6fuz/cNojQMAAAAwoAnr+2nDNy7Mtj+9OxWrLsy6R/rYt/5tpSEL/6Uxo1ufVv3DpdC8vFVPw8N1mfFw5736XB2/Ny8y7AfeenNDtmwvX7E9W7ItW97akA3ry9YPPijDR+xi0tk31iWvvLTLcx7y0is5/sD65D8OKgXR3WkNuA976aUkr2f8y40Z+YvfJS//PNn6VpL/yKd+vzHDhi1MehvWC7/uNHlqqf983S7HeHrrV/KtJMkd+V77Y18oW9+TE5IkS9qXS5es/m2n7Q5McuouR7Mf0xoHAAAAYMAS1vfHbx/JW/98Vg56uirDfzszb934dDafdVaG7a3zdWmD0/BoXeY83LkJzpzyvjptlfh/wCkbHp2bBUdMzmWZU2qtc+ncnUL10Wf3rw1Ov/UwQW6/bHmrU8V1d/7ojZc7tzdZsax/53jxuWRT2f7bNqVh05tZ12WzS5Mk92TD+t/n8KZ+tFPpo2OSfKEs/O5JecA9PknyRKfHj0qSrN6DI2O3aY0DAAAAMOAI6/vjPWdl1NNl33+950136tPexZyuzetbdapQ79IGZ/SZdZl7Zutj9XMyY079Hu/33rimKpddWpNDbmzKmJYVyTOvdHr8kN91v75TxfXG5zPxjd9n9D3bkiTDn/9lznpzW3LPv7c/NuaG55P1r+Ujq1fn5MYLkkN2MbA31iUv77rKvD8+tkePVjKm9Qv2CK1xAAAAAAaMQS0tLS1FD+Id59lnWluLdPV6lt51d37yxrvz0YsuzEcObV398kulMLpc40/zv379rkyceHwO2fh8nnji9znhv56aqiRZ/3o2Lv3XrNsyNFuGjsp/PnwXSXe3fcCBt5UTT9IaBwAAAOAd7O0f1jeuSdau6du2K5YlmzYmL/YzuO5vexSAvUVrHAAAAIB3pLd/WL839PcCQB+sf+J7+d26g3L4fz681PFly+tZvXpDho8Zk3eXT+i55a2eJwkFSJJDRiS33pMcd0LRIwEAAABgDxHW72X1t8/InJ/1NClrQxZeV5cFjaMz+fq6TKrq4SCtPesnz70suX1G5uSyzL20ptQ+Z/26vP7U3bn73w/N2VecneO727+1DU7jz/5XfppT818/3NOJ0j5p6sbX/m/WHTQmYzpdSUjH+oPe0loHivAnf5qcP1NQDwAAAPAOI6zfS3oP6XfaOnNmzEl90v2Esa1hfdWH61PfFtTvdIg5mTEnuWzuR7K09Vj9U5PL5l6WtiPX3z4jC47Yeew9re9e6WLE8t8MyycuOK+jR3+55x/OrQ+ndKGhP5PIrvx5D/MCdLEXJqaFQpw8Lrn4cj3rAQAAAN6hhPUMWA82/jrTqsqqk5/p49wEjWtKX33x86f3/DEZWE4eV6qkP2lc0SMBAAAAYC8aUvQAYL/R1zC0yMLmLW8lK/s4p8HLL5XuLNiVrVv6fswXfp1sfLNv2/KHOW5sKaT/k48XPRIAAAAA9gFhPbydDD2oHxcVCqzE3rghebGPcxr09QLApo19P+azz5QubLwdVR2R/NXVQnoAAACAAUZYD+x5hwx/e1xUeGNd8krvcxr8+I2X87FDj+77BYCVP0+efrL/Y6k6olRJ/2dT+r8vAAAAAG97wnpg4Dp0VOmrF79rHJFUndD3iwr//lj/wvpDRyXn/kUy7fy+7wMAAADAO46wHmBPOuyIvm13yIhSJf1Z55TaGwEAAAAwoAnrAfako6t7f/yQEcnUzybTLii1CwIAAACACOsZwCoOGJJN27fm4MEHFj0U9lObtm9NxQH9/Gdy6EGl1jZvrNt5/bTzSy1vhPQAAAAAdCGsZ8A6smJ4Xtj0Rk4acVjRQ2E/9cKmN3JkxW4E60cf0xHWDz0oOevc5NxLdtkfHwAAAICB64CiBwBF+cDwP8rrWzfnmTfXZtP2rUUPh/3Ipu1b88yba/P61s35wPA/6v8Bjjqm9N8/m5Lc9WjyV/9DUA8AAABArwa1tLS0FD0IKMr2lh355Ybf5dXmDWnesa3o4bCfqDhgSI6sGJ4PDP+jDB60G9c0n1lWmmi2qo+TzQIAAAAw4AnrAQAAAACgYNrgAAAAAABAwYT1AAAAAABQMGE9AAAAAAAUTFgPAAAAAAAFE9YDAAAAAEDBhPUAAAAAAFAwYT0AAAAAABRMWA8AAAAAAAUT1gMAAAAAQMGE9QAAAAAAUDBhPQAAAAAAFExYDwAAAAAABRtS9ABgf7J9e0t27NiRHS0taWkpejQAAAAAvJ0MGpQMGjQogw84IIMHDyp6OLzNDGppEUnCjh0t2bptR/w5AAAAALAnDBo0KAcOOSAHHCC0p2+E9Qx427fvyNZtO4oeBgAAAADvQAcOOSCDB+tGzq75LWFAa6uoBwAAAIC9Yeu2HdmxQ700uyasZ0AT1AMAAACwt8mg6AthPQPW9u0tetQDAAAAsNe1tLRk+3Y5FL0T1jNgbd/hiiYAAAAA+4Ysil0R1jNgqaoHAAAAYF+RRbErwnoGLP8+AgAAALCvyKLYFWE9AAAAAAAUTFgPAAAAAAAFE9YDAAAAAEDBhPUAAAAAAFAwYT0AAAAAABRMWA8AAAAAAAUT1gMAAAAAQMGE9QAAAAAAUDBhPQAAAAAAFExYDwAAAAAABRPWAwAAAABAwYT1AAAAAABQMGE9AAAAAAAUTFgPAAAAAAAFE9YDAAAAAEDBhPUAAAAAAFAwYT0AAAAAABRMWA+wv1p2c4bd9FTrwlP5UsWBGdbdV9s2a+7PuTs9dn8emN79fuc+0FjYUwMAgGI8lS9V3JylrUtLbzowX1qW1vfSn84Da7rZZc39OXf6/Vnbzf49WnN/zq24OUt7eR//pWV77lm9szXmgend/Gw6fV7qsPSmvn8mGraLn+XSm3xuAvYtYT3sTctu7vw//2U39/vNAZSclr9t3prN3X393Wkdm027N6vb1v94dpLqnDOvtLz6nimZfM8r7ft995yqwp4NAAAUYe0DX039PRflIzs9cka+/uKUPHTszqHw2p88lJx9Rg7r81meypeOXZ0vNl+dj+S0/G3zK7l72pTc/WLbe/jS8pgj/tBnM1CszuoHa/r8en3k77Zmc/OTqcvsPNG8NZv/7oyk7fvmV3L3tLbvn0xdH45XU+1zE7DvCOthn2t7Y9AWqCYTVTlTru2izsdmJbNP71/VzYPnZ0zbhaCPzUqSrH3g0xlWcWDGXPBQFlxwVOtFoh6qhgAA4B2rMU88nEz5aDfh6xFVOeyIz+S7zd/LOZ1C4adyd6f30aenLrMysae7XdOYB6Y/nonNV+cjPVXrr3k8D73/8i7noUfLHk/dtDEZ8wcdpO1ndlQufLDt+9N3EdY3ZvWv/qCTAvSbsB6KNu7qbH7x3uSCzwtPKRl3dXslfGY9mc3NW/O34/q4706V9SXlFfWlapK9M3QAANhvLbsrF77/8kz8yafbQ/aJs5O6j/XcoqZUiV/+XrqsYru7u13XPJ6H2sLgY89PzY/bwv+Hsrr1897Se85PzZ+e1t0I6cbaVfWdi5J26+703amsX53VDyb1qxTWAfuOsB72B0d8Jl+c9VAuvGfnfnsMVI154uGHSpX1Nz21c9/FTl9l1TrdVNa369RrEwAABpKn8qXW98eHnfO99pD9iVlTcveP783k8qKX9mKZp3L3w1Py9f60jzziM/lu89Y8MatUMFNedFP3o6fSVq1dukDgbtddK90N0dFCqEvAPvv0vddadtnjqUuy4OHHfYYC9hlhPewnxhw7peghsD9Z83jy/tnJrNmpm/3VrL6grGrnxa4fJlqrdVo/GPTYzx4AAAaopTednvppXT9z7arNyWn523mf6Uev+pK1D3w6E/Nk2RxRpQrtzH48S1PVOqfUK7l7Wt/7sA9Yy+7KhQ923JWQNatSP+uMjjkHZj25U2vZUhvQjnZF5z6wOrvTBmfpj2Zl8j1P5u48lCdcVAH2EWE9wH5o7U9WJ8cmyRn52x/X5KGfdHPr5bKbM6y9Ur4xD0zvvur+7hfL9nl/db8/bAAAwNtbY1bn3nz9CzVd1vc+cWnb3E+dv3roWd8eFpfdIdupZcvs3H1Pfb7WNlfZsrty4fvP6GaiW8ot/dGsTJ42paMVzZrVybFdutePuzqbm1/JlIePypeWtd050dGu6LvnjEn/2+A8lSdmT8mUj56Wc75Q4y54YJ8R1sN+YvWLD2Vy1zcdDFBP5e6Hx2RideviuKvz3XOqsvSmLhPNjruorMqjrUKnax/N7+XCY1u3X7M6C/bp8wAAgP1BVc75u24q5Jc9nrpZPQfm5e1yuvaqX33PlC7zQm1traQvf1++NZubr85HWidInXjO5am54PN5YE1jHvh6fe6+wF2wvWvM6l/NzhfnXZ6aC+7K0pRet24nCG593buf66sq58y7upuf82n52+bu1pfuxKib1ToJ8LgzUjf7q1oWAfuEsB72B2vuz9dmT+nhTQcDzppVGfOFLh8mlt2cib+6Nxd2evNZlYlnp6zK46l8qb3Svq3a5+asPud7+e45yQNfn5XM/moeWFOVc+a1TXQFAAADUWMe+Pqs1HUz0evaBz7d3lKl3ZpVqZ82JrtTXrV2VX0mn31GDstp+dsf1+TCY4/KQ2d/w/vxXWoL2U/LhffU52vTP58L3395/1+3Nffn3PY7IMrb4HSeTLjdspszcfbsPNHeUrT153aV+b+AvU9YD0VbdnOGHXt+an4sPKXVEZ/JOZ1C+dYPEl0D/CSHnXN56mY/Xrq1ds2q1D+4OquTdNzmeXU+ksY8MP2oXPj+J7O5+RvJVd28IQUAgAFk7QOfz4XpWgzToaa6vJCqMQ9cdX5qunk/3m7N/Tn3pqdKn+/K2+PcdHPuviDthVlLf1Sa5Nakpf1z2EenJA8+1O3FlZ61hvL3VJfN7VXeBqd8MuFWa+7PuR+blbofd6m4H3d1nnj/+Rlzk3Y4wN4lrId9rkt/w48lT3R9gwBl1j7w+Vz4/ic7/460954/LRNnzcoTy5Kl95yfzEq+Vj5R0pr7c27FUVn9hbbJZqtyzrxXMubrbb0zAQBggFlzf75wQXL3l7sP31e/+FDZ0lP5UsVRO78f3+mYrS0nx13dqTXOE5mV+nu+kXOOKM0xNfFX92Z189ZS8FvhPXlfrH3g0xl2VfL15lcy5usHdszbNe7q1s84nS29qTS3QH1bm6JutulWeyFd95/PP/J3W/NETi+bNwxgzxvU0tLSUvQgoAjNb20regjQu2U3Z9iPzmh/c7n2gU9nzAWlDw6T73mltSdmm8Y8MP2ujGntxbj0pgMzcXbvh9/5GAAA8A627OYM+9GY3P2r87P6C+WBbOudqA+2Lk67N6vnfSarbzqw1A6lu77my27OsI/N6rSqrmvIu+b+nHtV8vV51bm7NTzu9P572c2txVvd902n9Lnma8d2ed3W3J9zjz2/2/m4uv+cVPaz7c60e7P6C6sz5mP1ufvFXd/xXvpcVuPnxm6rOGhI0UNgPyasZ8AS1gMAAACwLwnr6Y02OAAAAAAAUDBhPQAAAAAAFExYDwAAAAAABRPWAwAAAABAwYT1AAAAAABQMGE9AAAAAAAUTFgPAAAAAAAFE9YDAAAAAEDBhPUAAAAAAFAwYT0AAAAAABRMWA8AAAAAAAUT1gMAAAAAQMGE9QAAAAAAUDBhPQAAAAAAFExYDwAAAAAABRPWM2ANGlT0CAAAAAAYKGRR7IqwngFrkH8hAQAAANhHZFHsirCeAWvwAX79AQAAANg3ZFHsit8QBqzBgwe5ogkAAADAXjdo0KAMHiyHonfCega0A4f4EwAAAABg75JB0Rd+SxjQDjhgkH8sAQAAANhrDhxyQA44QFU9uzaopaWlpehBQNF27GjJ1m074s8BAAAAgD1h0KBBgnr6RVgPZbZvb8mOHTuyo6Ul/jIAAAAA6I9Bg1r70x9wgB719JuwHgAAAAAACqZZNwAAAAAAFExYDwAAAAAABRPWAwAAAABAwYT1AAAAAABQMGE9AAAAAAAUTFgPAAAAAAAFE9YDAAAAAEDBhPUAAAAAAFAwYT0AAAAAABRMWA8AAAAAAAUT1gMAAAAAQMGE9QAAAAAAUDBhPQAAAAAAFExYDwAAAAAABRPWAwAA/P/s3X2QVWWeJ/gvIL6DWloWlA1tiqGdTU1Z2jF2R1YZiuAf0tHtEMtG2xs1DusUYFA9u7O9TezCDiEuO+TO0lsdE9G6ihUMa9RGUDE1QVsTrbMtCIZVGVPV26K1TWdbKyZKlVi2SgkFogi5f5x7M2/evDfz5gucfPl8IgjznnPuOU/ee85N7/d5zu8BAICSCesBAAAAAKBkwnoAAAAAACiZsB4AAAAAAEomrAcAAAAAgJIJ6wEAAAAAoGTCegAAAAAAKJmwHgAAAAAASiasBwAAAACAkgnrAQAAAACgZMJ6AAAAAAAombAeAAAAAABKJqwHAAAAAICSCesBAAAAAKBkwnoAAAAAACiZsB4AAAAAAEomrJ9Odq1MOvc1XtfZnuw6PPzz1+wY/3aNRn17h/rdGj13ovweAAAAAABJLiq7AbRg18rk6YOje+6yJ5INS4bf7uvrk1X3Jwu7k45Wdnw4WXN/cmiYzVY/nzx4Y9K5Mvn695IFNes625NU2rdrZfLi8mT7w60cfPS6NiZ7kmw5z8cBAAAAABgBYf1k8OD3kgcbLN+1Mnn6lmTv1rEfY8HDyernkp07ko4RBNlbWgz3774lWbWxpq37KqF5Cx0J42Zfsml38eOm9qE3rXYyMDXsWpn0fLNxx1Vne9I2zPt9oTqTzqt9ydJ1Da7ZZssBAAAAuJCE9dNWs5HxB5Ol2yo/L052fi/5TnsRrNeuX7Z+ZIfr2Josa08676uMpH+8WD4gNK89dpJF6yvh6CjCxCM7klXPFe1fkBS/77r+9c321dme7FmcfFVQPyG4q6TQtbG/o2k49ed2X2dEs32/UFxrgnoAAACAUgnrp4MBgee6Inhf9kSyvbu152/oTjakLlQ8nKypBOudtWF+rRUDR/1/fX2y6oViX08fHBgqDhlYLklWLx7ZqP/vbCsCyL6g/v4k65O9D1eC/PaBYW5fGLpifO5UYHy4q6RfX+dVM9XzvBWVDrBaDTvKAAAAALhQTDA76f00WTPMhKkPfi/Z210E3sueKH7esCRFYLcyOVK3fdfGZOnGuoWHkxebjHDe0F3sc+8TxeMt1cd1QeqChyvLlhTrRzKS96vLk0PPDW5rQ5UwdFUlbOzanrQ90R8+Lng42ft80rMuWdpe/Nu0u9JuQf3Ud7i4ZpbW/Hv6YHJoW82yynXR2WB954sjO1zH1mTZ7v4JkGvvKml47As1AfLiZGflWl2W4k6Avd3JlhUX4NhT1JSYxHtfcQ52jXE3XRsb/30ZjWavXSuv6Vh1bRzbezKSyc8vlF0rx++9aeVYZV8T9fsY0KbK34ORnEed7WN7T0dyThzZ0fy9mhCfFwAAwHgzsn4q2PR8suX+ZGlt2ZdWtCWLDiY/PDywXvdLu4uRtbWOvFgp+7EtWfpGsndN6+2rHXm/pTt5qdlI/LoyOEn/6PcF9yaLtiXf2Td8aZOuF5Ks6O8M6Ng6sGOgWWmVTe1GFE81k/6uEi4I5Zb67Xp87GWRjuwoOkBXPz+Cv0fNVO9EGWVpsrGUkBrN/oaa76SltlQ+O5p+trRgqHPyyI7+c32ov6dT4ZoYsxGU4BtUem+c/PC5ZNk3G+yzMoBi1ffG8WAAAMBEIKyf9G5JFtxYhI+7VhblXYb7otq1MdmUIhC4d3HS05Okuv3hpCfJvfcOfM4Pn0sWLU6yPGnblnTe3L+u/kt9tQ59Nfje0J1sqCnRUQ1Ak4GTe3ZtTHbe3CRMujFZtSLZ9MIwIcDhZOfuIiyoqg89Vj+f7G3y+uxaObDDoNXQgRJU7irJEB0s1TI6gyaY3ZcsfXxwsFJ7bfSp3lWyfPD++87lYUKdBQ8neys/722xo6DeoW2DO7Na9fT9ydOVnze1J1ueSHKw+LzoU7NNfWfdVKfcUv9znj6Yhh2ngzQpGXZkR7Kq8tza826Qxa0Fm9U5FRbsaNKmBscY9DdwuPJmIykhNcT+OoeZuHy4thzZkax6o/i59u9k7f5rJ8Me8m9mI/uK92bZE8W+l65L7m5yfk32a2JQZ0f9Ob1u4PpDNefReP3dH7LDZV3jddX/b6q9jmq37VtfGUCxqf6ca/G6AgAAJixh/VTy4PeSB/clS+9PXqwLMLs2VkKYdUmeSPZWvoguvCV5uiYAP/Jicmhxsqk26NhXfDlf/dPkxSQbnkjWvFB33Mp2I5oIxqawzwAAIABJREFUttIxcHeT4Lw+mOi4r2h/1xAhQV/7a75oNwo9quHMqrq2NgsomJimw10lVWOpWT8ovNyX/lCn8rx7azvNhvvFGN5kmsS7onNda3cX7VqZvHjz4OXVgHG4kd2rtiWr/7S16/Wl3cW5ueDGYs6RWvV/I5ranSxtcXR97b5rr9Wl25KsSLa0+PyGd/WUWWKqMsn6ovX9782WFcmmlRcw3L2A10Tt3/36u0oGdN7Wff6Npw3dydcrHTC1nRsNO49faNABUtexU/vZ/J1tg/9fqzq6HwAAmNSE9VPOkqIe+5r7k8624stgtRTC6p/WfUFMJQB/vKiHuiCVEfTLB35x3/V4EazkT/qPsb0tWTPC8KNe1/YiWG85JFhS1NZ+e4jast+pBEX1+xyq9E0j43YbPefPdLmrJINLOTV0Y+vlfQboKcKzVc73UZsK5Za6NlZG4o+yHFP1NVj9fLJwe9KZwYF9dZuWO3THWAKnzyhG1lffk872pKemA6NrY4YM/1dX/tvorp6ujcme4ToOagL9hu97gzsJhr0brNKRXt8R07E12bIxWXUeAvuJck2UbcHDRSfa0jRpV+W9WbaimCeileuia2NxTg4ahAAAAEwFwvopqS6021D5uTrScoDaEcYpyn3c+6cDN+m5JdlwY7Kr0bEqXzRr1QbgzUKZ2mCnYUDQZNR99XfpbPScmvX16kfMDxWOdrYnCwWXk8qUvaukZ/D1laQ/kGpw/Q1YX1FbjqSvjXVlcGqv2+lWBmdI06DcUrXGfDK6DsyujZXSKJX62UfuKybwXlN9zarn6Yr+bVpR/zerYc33uvC64WszipH1Sfqu00HGsQxO7TlTWwanqu91b3A3WP3fsV0rB7e30d0OtR0QfYF9+wg+vybRNVHbltrHfUbbyTkCG7qTtCe71gy+hjrXjXxwwEu7k7YVxaS4g553ixI4AAAwyQnrp70bk7YUI4yP9DQIK5NsGGqU2pIWQ6Ge/lvfd60swpWd3QO/VHbcl2xa1z9KcKyTHDbTtTHZ9NNkZ6Pfqxqinofjcp5N4btKaoOoQYFeXY3iauhVa/XzRVjVN3q4ct1Wg7wt9QHgyH+lKW2ql1tKJcxte7zx6PvhQuiOrf2dBEmyYEmyvXItVo834ruV9jW+G6ppmZ6h6s6PsmZ91/b+92RNzv8k0LWdLYP0DC4f8/ZPk7b7mu+v1TsZOrYme+9Llra3Xq99ol8TA2q+j0SDmu8NO7Aa1Zxf3Hy3zQYSNFs+lA3dKTopRjI5LwAAMFkI6xk48n7ZN8d/VFZfOP98sqW9qA3bcILXVoP/0WphdGd1dLWRaZPUVLurpOGw3nFQrR29onLN1Y7abaXkznQyHcotDXWdNNDTZLRzn5prY7STde56vCgNsqeuY2ykEy3XdyQ01GR09Uu7696TtkpHbgtlcAboSdY8ntx7S5Pn1gW/jTokjjT4LOg5mLS1NW5HdfR8y3cyVP7+7lrZpH56rUlwTSQZeUmcyqj/Pk3+n6TaCVx7XtfXi29Weq9Pkwlmk+K1/GrS8Fzp69BYkuxcP7CE0ZG6uzIAAIBJSVg/XTWt99pCaFCrWcmEqmVPFP+tfpmsfrlfOtSX2PrnN/tSW1+7t8F2i9YXo5A37U7xxb3ui3ej0XdNQ1SmlulwV0lt8F+Z6+HtHcmm6jlfFwYNuJ4nWO3niWDKlluqWd8sDK8PoRuFxI0Cyj3NPr+HOb96bkk23Dc4rG91ZP2wYekQVj+ffPXFZE9lQtmdKTpAOlcmb99SafuaxpOU1+o7J1L8DTyycXD7B5WJaaIaXG+qlKtZsKPyut6f9DToEBnNiO1k5JOsT9RrYqi7FJq+5kv62zhSCx4eOAFys9ex9rwc6jo+kgw5wWz1mMu2JVt2nP+7PgAAgAtGWD8dDPhyWPkiWjvyclRGUue17svvSMOAjLWtaR4K1X/BZnqZ8neV9Ay+U2Rho3O+QT1smpjC5ZaS4Ttoq5O+rq4J66udv6ufT1b/yfDhc6Pa7PU2VOZkqNfqyPravzP14exwEzonSWelNFBqAuIN36tMMJskNyarViQ7dyQdlf3Uvg4992fAObEglQB2NPb1l7NZsKMIZ9uqdehTuYvhiaLzsRQT+Jpo2mnToBOp/u6A4SZlHqDyGXrvEHcYVM/D1Y8X/31pZbJgjBP7bniiuBvgSKWNi24eensAAGDCE9ZPZq2G3iMOx8/zfqBMk+mukmon1aBjraj5uW6i2Nr1XS8MDsEYB1Ot3NIw6id2XbS+CCT7QvCaDtWGv8M4GnHN+mrQXdd50PQOgkrY2rY+eXBJcQ0107Em2VlTl39ZzejxRqWFqjXmB30G1X721N9x0JOsWVfsuyNJHk7a2otR/9Vj7a0EtsuaN/X8m8DXRCt3M7Q0OfAY1JbOqb4mG/60mKh3TJ2kNXcDjLozCAAAmEiE9cDUNenvKqmMLB7tBLNv/zRZpZRNuaZAuaWOrY3vThqqZvr5MtKa9dWw/aV9SUfN9ThcZ9yDrYymvjHZtH7wJM0NHa6E0m1FJ0mjGu+NJod+el3R1r6SMTsqQX3t+1EJbHetPH/TXIyrC3VNTASVjoWGczfcWJmIuT15aZRzO9R6+6dJjKwHAIDJTlgPTD7T5q6SBqHUgFrMDWos106o+WDt5JJDdTKMpAOCEZss5ZYW3jKCg1bK4WxpYWT+eBrRyPp9xR0BW56vjICvdGyNi5qyJ1veKEZ2DzXJam1d9pEE6vX7HKoW+2Ryvq+JiaDaWTxkR07NRL2Dau8PNcFsvUpnUNs3x6XpAABAeYT1ADDeJlW5pUqHT31Zl1ae2yiEbDqpbK0Vw21Qo67syVDt29ReeU3biuesfj7puDHp6C5GrteWjGq2n4ajoGtVQtS+IH1rMRHtpvuTp+tGvfdU3ofvVGrMV0Ppp+snSK8ayeuSwedZfbmfieRCXhOtjFKvn2C+UcdT0zs5mpzj91b+29me9KxP9rbYOdQ3UW970f6vJ0NPMFvpLDpUu5MVyfYJ/P4DAAAtEdYDwFhM+nJLoznmEIYLS1uZYHaAUZQ96Www0r1ZOZ+ReGl349+vY2uy976ig6DzvqTt8ZpzIsmmFQPvgmmlDM6GFn7nMZ9n50np10TFUNfCcBPMj+g6qruzo5X3bpDa83zJ4DsoOrbWdI65GwoAAKaqGb29vb1lNwIAAAAAAKazmWU3gBHYtTLp3Dd4eWd7Zfm+ZOnGYXZSuc2663w0EAAAAACA0RDWTxqVycPuHqq0QFuy+qfJmh3Nt9n1eFEPtulkZwAAAAAAXGhq1k8WXduLicRqJ1bb0j0wdF9wY1Fjtac96Xq4QSC/r1JD9mALEwiuGHttX5gojuwo6kYPNWkhAAAAAJRIWD8pHE527m48IV2StC1OelKZtK8Swu9pz6DAvXNdMap+uMBy18rkxZvHq/EAAAAAAAxDWD8ZdG1Psn5wUN/ZnuypPliX9KxP9nY32cfGYtstRhZDv8PJmvuLu1YGcGcJAAAAABeWsH4yeGl3ksUDS9csWp9s7042pDISfnnzEfNHdiSbdhc/15bRqdVs1D5MZrtWVko/VdReQ6ufTx6s/FxbUurIjmTVGxeqhQAAAACQRFg/OWyojJZvFsovvCU59MbAMjhVW7qTl7Yly55I2h5v/PzOJgE+THYPfq8I5Ls2JpvSP1reOQ8AAADABCOsn8zqRw1vaVIGp6Ma9j/e2n57DiZZPubmAQAAAADQGmH9ZDCgNv3BSimPFcneyqjh7EuWPp5senjgc+6uKe1RdWjbwFIgVavrHre1jVPjAQAAAAAYjrB+MtgwXG36tmTRweSHh4u687tWFpPNbmiwr0Xrm9e2T5LsKzoGVgvrmQDWtDeY/LVF9ef6opvHpUlMZXUTDg/6vNyXLF038Clb6jpFO9uTPSuSnTcPLEu2pTvpqNv/sieSDUuGaVOLx+xZX5R6qj1m/f5b3a7V49aq3uk1aP6HmjJsY1k/7OsEAAAAk5+wfkq4MWlL0tOT7PqT5Olbkr1DBfJ1ujb2T0CbFAFVX+j/TSEJ5dneoKzTaLz90yR1Yf3CG5McHp/9M/nVBsPbl/Qv60oRHlc/J2sn4+7aWEzaPWiC7t01ZckqAX11cu9qGH1kR7JqXdI2xOTeIznmoW3JqhX9pdCq+09d0N3KdiP6XSse/NPkxfuTTRv754b4zrbi78mGJUnaxrgeAAAApr6ZZTeA0TicrFmZHKlZ9PX1yZ51laC+EnTsWpms2TH87jq2FsFN9V91JGnPQeVwmBoGnMuHk55SW8OEczjZ0iAYXvBwZZT34WTn7iLIrw2qO7Ymy5I8vb1uf4trypLdWITjSfH86qjxBfcmi5K8+GLzNo30mDu3Dmz76sXJnhdGuN1Ij1t1Y7JpfZLdya7DRSfAniSrHh6n9QAAADD1Cesnm0PbkqX3J23fTBZUF+7rL2lQW+qjPmxfeMsIDlQph7OwyYhPmDQq5/LdRufSTE9RmubeexuvPvJisb5R5+XdK5L8dGDnaW6p+XxOsqDyuTzgHKzcEdXMSI+5aPnAYyaVz/wRbjfi37XGgocrgf6fFJ0ftZ0T47EeAAAApjhlcCaj2jIE1clna+shL30j2bumGD28qiYc6liT7Ly/8QSzjQhKmAq6XkiywrlMc0cqt1oM1znZdP3BIsCuD8HHw5iPOcrtRnvcDU8Ud3kdWtFfTmg81wMAAMAUJqyfNA4nL9ZOvleZ/G/ZE8neaqBxY1Hju7M9Wbq7KOkwIKC8cfxqgMNk8VKlpEefnuTQ4oFhY7WeeJ8VF6BhTDhvH046hgjsm65ffH6C+nE55ii3G+1xdz1e+WF30nnf4HrzY10PAAAAU5gyOJNGJWjvC9+XFPXlGwUZG+pqz8N01bUx2bM4+fqSSidWe6WT65sDA8ctNXM27FxfWnMpyXD146vrexpMdvDS7gwqezOebWr1mIeeG1ye5qXdg8veDLfdWH7XIzuSpyudyqsXJ3seH3issa4HAACAKU5YD0xRlYkyt3yvCBc31ATyG+ruRqmvm713a4P9MXVVJoE9tC3p3Ne/+MiOpKtm/Z51xeSnVV0bK2XIxuN8OZysaa+ZFHykxzyYbNkxeLtBE7QOt12rx61vb80kvR1JHvzTZFHtsca6HgAAAKY+ZXCAKUrZJ0agY2uy8+Zk1boilE6K4Hh7/fr7k6erT1qc7Ow+fyVwRnLMReuTVW8Ud49UbekePFdDK9uN5nftvL8oL7WzLvTftC3pbEuybmzrlcMBAABgGpjR29vbW3YjAIBR6mxPetYPX/qs1e0AAACAUiiDAwAAAAAAJRPWAwAAAABAyYT1082ulTUTAgIAAAAAMBGoWT8pHE7W3J8cGuHTFtXXJh7pflYke7eO8KAAAAAAAIyUsH5Sq4TvbU8kG5YMv/mRHcl32lrbFqYLk24CAAAAMAFcVHYDuIC+sy25u7vsVgAAAAAAUEdYP10c2VGMHr57Y7J09/DbDyqhAwAAAADA+SKsnwra2obf5jvbklXdSUfUoQeYDDrbkz3mDgEAAIDpQlg/GXS2J3uGWH/o/uTpJutWP58s3F6Mqt9wPhoH51m1pvyqN5JNuwfe9XFkR7JqW/+2yxrM37BrZfL0waG3qT/enhXJzpsH7ntLd9JRN0lzo3210iaYcPYlS9cVfzMevLHsxgAAAMC0JKyfDDZ0Nw7aq6HgcGHgriSb2pKl7S0e0EhOJprnkp3Lk701cy5Uz/++cLESNqbmeujamORPk7031jxnXdI2XCC5O9myvnK8SkC/qXL9bKncodJoX620CSaiIz1ltwAAAACmvZllN4Ax+OFzyaIVSc8LQ2/34NZkwZIieBzu3871F6btMBKHkmyqnUPhcLJlWzHKvi90X5JsWZHseTw5UlnUsXVgKL/g3mRRkhdfHOaAi2uOd2OyakXx47IniqC+4b5abBMAAAAANCCsn7T2FaU9Vm1NViXZdbjsBsF5dEuyoObhkReLAP/eewdutuDmJAebBOP7kqU1JWxGcrwFNxf/vbt2dPyNSe10EaNqExPL4WRNe3EX0tL2ZM2OuvX7+tdV/3XVbdLZnizdWNxlMWi7uv137muxXXXHbfS8+uPVblNtU73Oyu/Y2d5fuunp+4vn1/5N2bVy6ONX9zNUGwAAAIBhKYMzWXWuK0bwdiTJmmTnnyRf/d7AgHHUfloEi0c2FnW7tz887DPgvFp0c+PlTw8xX0NSlMHZtLvyYEVx90hne3I+K34M1yYmptqyYtuX9C/rSvE5Wz2Xamu6d20syiMNqvM+yjJKDe1Olqa/BFTXxmTTCMsv3b0i2bM76draf2dI9hVzoay+N3nw4eTr9ftI//FaKSV1aFtxB0q1ndXtlIACAACAlhlZPxntWllMgLm9pkzH9m8mq1aOffTugrb0jQJ++6dj3BmcZ1ualHPqSJJ9/eHq3u4LNw/DkG1iYqopYVQbLC94uPK+HU527i6C/NqAumNrsizJ09vr9jeaMkrNLE521py7HWtGXn6p475i8ds1o+W7Xij2/dVhJpNtuZRUXTsXPJysXpzsGaZMGwAAANBHWD/ZdLYnT9/SIHhcUkzAuapBWYYRWVKETzt3JD0HB5f0gImgGhi+NESZjeqEmQtrw8jKaOKy2sQE1dO4hFFVtcRRW9vgdXevSN/dSH1GUUapqbp9jar8UuVzvTZgf2l3suybI7wba4hSUouWD97Xwlsy+LUBAAAAmhHWTxZdG4sawD3rm48QXvBwsveJotxCo/rErdrwRFHSYE8Loy6hFJXRynvWDaytfWRHf53xBZVEszY871xXbpuYmBp27DTQdP0EmJOgWmu++q9ag77q7hXJoecq7ax0Wt3dQnma6t+epe3J0heKu0SWjaRhE+C1AQAAgElCzfrJoLO9CM53drcwCnJJEaZUA5Zlo6kXvKS/7jBMVB1bky1JNtXUiF+0vqY81JJk5/qibnZ1NP3q55Nl95+/mvXDtokJ7e3DSccQgX3T9YvHab6QMdgyTKmljvuS7E5+eDhZ+EKSFS2UZto3uE7/iE2A1wYAAAAmCWH9ZLChO9kwwud0bL1wNbrhfNowRMfRcOf5goeTvfVBed3+6vff6HpruJ8mbXPtTT4L7k0WbSvKxDzY4H2uru/pSVIXWr+0O8mK8gLpatte2pd0DNUxu6SoIf/ii0lbpf7+cIYqJbWobttDzyVHHh74Ory0u+isEtYDAABAS5TBAWCaq5QwOrQt6awpm3RkR2UOkCYljro2FsH1lvHonDmcrGkfRcmkEZRf+uryIlTvyeASONWyUT09g5e1VErqYLKl5njV12ZVtfOjwe/XWVeyrXpHWN+8K/uKx7XvyWieAwAAAJOEkfUA0LE12XnzwLJJi9Yn2+vX15Q4Sqvlyc6zVssvVUfhH2pUAmdJsmVFsqny+69+PnlwBKWkFq1PVr1RBOVVw5XmASatc+d68+mZz3LpJbPLbgoAAEwpM3p7e3vLbgQAcL4dTtbcn9w7lhr0DXRWJj83NwNMeefO9eajEx/n5Mef5vLLLsmJkx/n6jmX5ao5l5XdNAAAmBKUwQGA6eDIi8mhxclXxzGoB6aFc+d6c+yjU3nnvY8yY9aszJ1zeS66aFauuerKnMuMvPXOh/noxMdlNxMAACY9YT0ATAff2ZYs+2b5ZXuASaNRSD9zxowB28yaOVNoDwAA40RYDwBT2a6VRS35nvXJhiXDbw9Me62E9PWE9gAAMHZq1gMAAANq0l955WXDBvRDOXvuXI6fOKWmPQAAjICwHgAAprHxDOnrCe0BAKB1wnoAAJiGzmdIX09oDwAAwxPWAwDANHIhQ/p61dD+qjmX5WqhPQAADCCsBwCAaaDMkL6e0B4AAAYT1gOTwL5k6bqBi7Z0Jx01jzvbk571yaYkq7b1L1/2RLJhyci3a/W4ADDBTaSQvp7QHgAA+s0suwEAQ+raWATmq59P9nYX/7asSDa1J7sOD9z20LZk1Rv92+1cn+xZl3TuG/l2IzkuAExA58715thHp/LOex9lxqxZmTvn8gkV1CfJrJkzc81VV6Y3M/LWOx/mlyc+LrtJAABQGmE9MIEdTnbuLka9P3hj/+KOrcmyJE9vr9t+cbJza//DBQ8nqxcne14Y4XYjPS4ATByTIaSvJ7QHAABhPTCRHXkxOZSkrW3wurtXJPlpcqRm2aLlyYK67RbeMvLtRnpcAJggjn10Kj9799ikCenr1Yb2PT/7ICdPfVJ2kwAA4IIR1gMT38Ibm6w42GJoPsrtxnxcALiwrrnq8lx/7Zx8cvrTnPp4cgbdJ0+dzunTn6bt167NFZdfUnZzAADgghHWTxad7cnSjf2PuzYmS9uTruqCfcXj2prbo3kOTERvN6sRv3jwCPnx3G7MxwWAC+/SS2bnC9fNydVzLs3HH38yaUL7k6dO5+Sp05n/+bmZ//m5ZTcHAAAuOGE9MHEtuDdZlKSnZ/C6l3YnuWVgaH7oucEj3l/aPbjszXDbjfS4ADABTZbQXkgPAACFGb29vb1lNwKgqa6Nyabdyern+yd7rS7b0p10VLbrbE/2JFm0Ptn+8Ni3a/W4ADBJnP7kTD46cTq9SS6/rPzyMidPnc6MJPME9AAAkCS5qOwGAAypY2uy8+Zk1f3J09WFi5Od3YNHty9an6x6oyjvVNUoWG9lu5EcFwAmgUsvmZ1LL5ldemhfDemNogcAgIGMrAemhs72pKdmtPxYtwOAKercud58dOLj/OrUJ5kxc0YumjXrgoT2J0+dzmefnc253t5cNeeyXD3nsvN+TAAAmEyMrAcAgGmgGtKf/PjTXHnlZblq7hVJkjOfnc2JX32cWbNmnpfQ/uSp0zl79lzmzrm8b9nZc+fy1jsfCu0BAKCGsB4AAKaw+pC+NjRPktkXzcrsKy8b99C+UUhfNWvmzFxz1ZVCewAAqCGsBwCAKWi4kL7eeIX2Q4X09YT2AADQT816AACYQupD+pkzZoxqP2c+O5vTpz9tObQfSUjfzNlz53L8xCmhPQAA05KwHgAApohjH53KiZOnM3fuFaMO6esNF9qPR0hf7+y5c/nlRydz/eeuzBWXn//JbwEAYCIQ1gMAwBRy+pMz+ejE6fQm4zphbH1ofz5C+qQI/5Nk/ufnjut+AQBgohPWAwDAFHQ+Q/szZz4b130mQnoAABDWAwDAFHa+QvvxIqQHAICCsB4AAKaBiRbanzx1OjOSzBPSAwBAEmE9AABMK2WH9kJ6AABo7KKyGwAAAFw4F8++KBfPnpVfnfokx8+ezUWzZl2Q0P7kqdP57LOzOdfbm6vmXHbejwcAAJONkfUAADANnDvXm49OfJyTH3+aK6+8LDNnzEhSTBh7+vSnmTVr5nkJ7U+eOp2zZ89l7pzL+5adPXcux0+cylVzLsvVgnsAAEgirAcAgCmtWUhfb7xD+0YhfT2hPQAA9BPWAwDAFNRqSF9vrKF9KyF9PaE9AAAI6wEAYEoZbUhfb6Sh/WhC+npCewAApjNhPQAATBHHPjqVEydPZ+7cK0Yd0tcbLrQfj5C+3tlz5/LLj07m+s9dmSsuP/+T3wIAwEQgrAcAgCnk9Cdn8tGJ0+lNxnXC2PrQ/nyE9EkR/ifJ/M/PHdf9AgDARCesBwCAKeh8hvZnznw2rvtMhPQAACCsBwCAKex8hfbjRUgPAAAFYT0AAEwDEy20P3nqdGYkmSekBwCAJMJ6AACYVsoO7YX0AADQmLAeAACmoQsd2gvpAQBgaMJ6AACYxs53aC+kBwCA1gjrAQCAcQ/thfQAADAywnoAAKDPWEN7IT0AAIyOsB4AABhkpKG9kB4AAMZGWA8AADQ1XGgvpAcAgPEhrAcAAIZVH9oL6QEAYHwJ6wEAgJad/uRMTn9yJlfPvbzspgAAwJQirAcAAAAAgJLNLLsBAAAAAAAw3QnrAQAAAACgZMJ6AAAAAAAombAeAAAAAABKJqwHAAAAAICSCesBAAAAAKBkwnoAAAAAACiZsB4AAAAAAEomrAcAAAAAgJIJ6wEAAAAAoGTCegAAAAAAKJmwHgAAAAAASiasBwAAAACAkgnrAQAAAACgZMJ6AAAAAAAombAeAAAAAABKdlHZDQAAAMbXW6/szwfX3ZM7FlaXHEt312v5xacDt5t7U2Wbt1/J/jePD7/ji7+Q2zrac02T1ce6u9Kd9nS0N9ti0DOKdl3alnvu+PUWnwMAAFPTjN7e3t6yGwEAAIzdW6/sT0+DzP3iL7TlmmMf5PKOO9JaJP5WXtn/Qa69p9XtC0OH9Y07DJqaK8AHAGB6MbIeAACmiF+/47ac6upO2jtyeU/t6Ppj6e7qSc/+/empfcJQgfjFl2XuUAc71p2u136Rwdn7a9n/iwE7yhdu60iR39f+PIS3X8n+94fZBgAAphhhPQAATBVv9+QXn36avLa/eHx8f/a/eXG+cNsN+ThfyG33tOeavJVXuk6lbYhyNjl2Kqcvvbz5+qq6sjjHurvSc0VHXfmd7gb7rwT9NZ0Fx7q78tovPi1K84zkdwYAgClCWA8AAFPFwjtyTyUo769bfyzHunvSfU1b4/C96Qj5ZP/+nsELh6hbf/zjT5MrmjXumrT/2qXZ/9r+/OLiL+S2e+7JNTmW7q79OXbNbelo78g97UW79x9P5t4ksgcAYHoR1gMAwJTQoCb88f3Z/2YqAXuTcfLXtKfjnvYBiwZPUNuKt/LB8eT46e4cW9hk1H5NZ0J1Utu5N92T9pNd2b//0rTdc0d+/Y57RlQnHwAApgphPQAATAnXpL3jnrQ3Cu0//UVeqy0kf/EXhtjPW/ng+Nxce0fy1itdOdXWQo35JG+90pPTX7gtt6U7r+1/pQjeG21YCekzty333FMdPd+Re9rfyiv796dniJH7AAAwlQnrAQBgypnbPCyv1Kxv5lj3z3NowEWWAAAgAElEQVR87g25I8lbLR2r0jlwaVvuab8mSUfuueKV7N/flVO31YzYry+3c7yncZmdvo6FFiejBQCAKUJYDwAAU87x9OzfnwZReKHZyPpj3en+xaVpu6dZIZq38sr+D3JttSOgEqzPveme/vI2SVHuJq9kf8+76TtStdzOse50dSftDUfPH0t3V08u72jW0QAAAFOXsB4AAKac0YysfyuvvPaLXHrTCGrGD1WyZuEduWfhsXR3HWt1bwAAMK0J6wEAYMoZ4cj6SomaS2+qn1T203x8IulL44+dyumLL8vcsTavvob+AHPTNtb9AwDAJCSsBwCAKWcEI+vffiX730za7hk8ov7Xr5ubnjf3Z/+b/csu/sJtw07+eqy7K69VZ7i9+Au5rf4JTUfkF2VwAABgOprR29vbW3YjAAAAAABgOptZdgMAAAAAAGC6E9YDAAAAAEDJhPUAAAAAAFAyYT0AAAAAAJRMWA8AAAAAACUT1gMAAAAAQMmE9QAAAAAAUDJhPQAAAAAAlExYDwAAAAAAJRPWAwAAAABAyYT1AAAAAABQMmE9AAAAAACUTFgPAAAAAAAlE9YDAAAAAEDJhPUAAAAAAFAyYT0AAAAAAJRMWA8AAAAAACUT1gMAAAAAQMmE9QAAAAAAUDJhPQAAAAAAlExYDwAAAAAAJRPWAwAAAABAyYT1AAAAAABQMmE9AAAAAACUTFgPAAAAAAAlE9YDAAAAAEDJhPUAAAAAAFAyYT0AAAAAAJRMWA8AAAAAACUT1gMAAAAAQMmE9QAAAAAAUDJhPQAAAAAAlExYDwAAAAAAJRPWAwAAAABAyYT1AAAAAABQMmE9AAAAAACUTFgPAAAAAAAlE9YDAAAAAEDJhPUAAAAAAFAyYT0AAAAAAJRMWA8AAAAAACUT1gMAAAAAQMmE9QAAAAAAUDJhPQAAAAAAlExYDwAAAAAAJRPWAwAAAABAyYT1AAAAAABQMmE9AAAAAACUTFgPAAAAAAAlE9YDAAAAAEDJhPUAAAAAAFAyYT0AAAAAAJRMWA8AAAAAACUT1gMAAAAAQMmE9QAAAAAAUDJhPQAAAAAAlExYDwAAAAAAJRPWAwAAAABAyYT1AAAAAABQMmE9AAAAAACUTFgPAAAAAAAlE9YDAAAAAEDJhPUAAAAAAFAyYT0AAAAAAJRMWA8AAAAAACUT1gMAAAAAQMmE9QAAAAAAUDJhPQAAAAAAlExYDwAAAAAAJRPWAwAAAABAyYT1AAAAAABQMmE9AAAAAACUTFgPAAAAAAAlE9YDAAAAAEDJhPUAAAAAAFAyYT0AAAAAAJRMWA8AAAAAACUT1gMAAAAAQMmE9QAAAAAAUDJhPQAAAAAAlExYDwAAAAAAJRPWAwAAAABAyYT1AAAAAABQMmE9AAAAAACUTFgPAAAAAAAlE9YDAAAAAEDJhPUAAAAAAFAyYT0AAAAAAJRMWA8AAAAAACUT1gMAAAAAQMmE9QAAAAAAUDJhPQAAAAAAlExYDwAAAAAAJRPWAwAAAABAyYT1AAAAAABQMmE9AAAAAACUTFgPAAAAAAAlE9YDAAAAAEDJhPUAAAAAAFAyYT0AAAAAAJRMWA8AAAAAACUT1gMAAAAAQMmE9QAAAAAAUDJhPQAAAAAAlExYDwAAAAAAJRPWAwAAAABAyYT1AAAAAABQMmE9AAAAAACUTFgPAAAAAAAlE9YDAAAAAEDJhPUAAAAAAFAyYT0AAAAAAJRMWA8AAAAAACUT1gMAAAAAQMmE9QAAAAAAUDJhPQAAAAAAlExYDwAAAAAAJRPWAwAAAABAyYT1AAAAAABQMmE9AAAAAACUTFgPAAAAAAAlE9YDAAAAAEDJLiq7AVCms73n8rcn/iE/O30ip899VnZzGCeXzrwov3bpnHxpzucza4Y+SQAAAAAmvhm9vb29ZTcCynC291xe+vDtXDv7stx8xedyxazZZTeJcXLy7Jm8cfLDfHDm49z9uYUCewAAAAAmPGE909Zrx3+RJLlt7hdKbgnni/cYAAAAgMnCcFOmrZ+dPpGbr/hc2c3gPLr5is/lZ6dPlN0MAAAAABiWsJ5p6/S5z5S+meKumDXbXAQAAAAATArCegAAAAAAKJmwHgAAAAAASiasBwAAAACAkgnrAQAAAACgZMJ6AAAAAAAombD+fDp3JqeOH8/xX50puyXj4ECeXLs5z71bdjuYOF7Pt17+bna/V3Y7AAAAAGDyu6jsBkxFx9/6Yf7i//pefvzWqfTF9LMvz4J/vDL/bMVXs2DuKHf87nPZ/OizmffIU3nk9uabHdi+Nk/+zQj3Pe+BbH5seeY33eD2PPD7z2bzo09m/lOPZIjD5+hfbs7m7x9t+dC3D/P7THaf/OrTXHLlxWPez/sHv5vNWZY/X3xtkuQnr3w7D50c6hlfzDN3Lc+X+x5/kN3/eU9y0x9kxfVjbk6SW/PQ517Nstefy6Lra4/TuO3LPjzR8p4fuuEb+eObxt5CAAAAAJgshPXDefXx/MO/W5gr/+3v5bJhNz6VN//Dt/KtvzqSQWPpz5zKka5n8r/89b7c9y//OCtvvnzkbZm3PGt//8fZ/BfP5ejtzYP129c8lacarTjwZNb+9W/nqTXDJOOVToHGcfvRPLl27aCl839/czb/7vymj3Pgyaz9i4V1HQJH89yjm/P20K2Z3N7/Uf777sP53fY/yP3XjXFfn1+Qm17fna+8cldevePWfPmOb+TV6rr3uvJHbyabf6cjYz1MQ+915Y9e/7v8oOHKE3no5W8PWvq1z63o61ho9DhvPpevvHd19gxo8wfZ/Z93p2f8Wg4AAAAAk4KwvhWLFrQQ1CdHn/9W/s1fHak8mp0FS/55/tnyRbnqo0P5q3//TF54/VRy5khe+N+/lcsf/VdZPq/JjoYMy5Pk2Wxe++zgxTWj45uPbj+Q+qx9ULCeJLk9jwwzgp4WnDubJDl9buy7uu76jvzx9dcmL7+a3e/dOmB0/E9+9nfJnBWjDOqLgPyx+h6mK4pOgX71I/UBAAAAgPEirG/i4//43+VX/3N3ZvzT38uM/DAf/uP/MWc7vtl8hP0nP873vn+k7+HsL/1h/pvlV+VHu/7P/P0NS/LP/+W/SP7Vv8kLHyQ5dyTP/ocf575v3pnZjfY1b3k2P7V8wKKjf7k5m3/+QGVUfGVE+j8ZunxMfQg/cB/9yxqOwm/gwPa1efaG2n0eyJNrn0ymeBmbCeG9rvzR67/MmruW54/vujXvH/xuvvJ6XVmZk7vzlZcHLirKydSF8a9/O4+9Xvn5irvy6h3X1WxbLH7/4Hez7JPhm/WTV76d7ZfUjph/Pd96+eVEGRsAAAAAGBFhfROX/d6f5bLfq4b2N2f2X/+nfG6I7Y937cvf1oyePvO3z2T9+sqDv3kz37vpz/KPbkwR1ifJT/blh8fvzD1D1q8/kCfX/ii//dQjaTYIf3CA3u/o9zdn7ffrlz7ZYGR9k52/+1w2P/p2HqiMsJ93w/wc/fm7SbWQzYEf5UDm54EG9XgaH/tAwzsCBuX8Ldbmn15uzdIrduehl7+bR2/9g6xY/AeVEjhFEL93zor8+eL3862XX03brfU16a/Nit/5RlZUS8xcXwTprQbyA9R0Gnw5yRcvmZMffPJ+kkpY/+ahPJM5efTKwU/9wYeDOxOSd7Ls5b8btO1DI2wWAAAAAEx2wvqhvPp4frXn3lz59Nv51X/7H3PREHXrD/1/bzbfz5Vfyh03nclHe2oXvpm/P5Tc0yyMPvBk1j55ILc/sjnz3m2+69vXPJVsX5u1aweXrRnzyPp58zMvz+ZHB5Lbb0/mf3Fe8v0f5UBuz+1Jjr7zbjLvztzeoCdhutas/+T4iXx6tnbB2Xyaz/LpJydy4ljN8lmXZM7cEUw6e/21WXH9N3LXwe9m2c9ez4rri/I0P3lldx7Lb2bP4muTXJs/vuFQvtJ0wtf301NX6uZrl4ywcM711+am1/8ue95MvnxTct1lc5IPD+UnuTVfTvL+xyeS2QtyV4MJbNWsBwAAAIDmhPVNvZtf/rv/mFn/9X/KZV95N5/k3+ST934vlzUIIYfyG//lv87au6/LZ68+mUf/ttVDP5fNTyaPPPVUf/j+u7Wh+vwsf6z/0e1rnspTB57M2u0Hhp88tlXzFmZebs9v/1by7DtHk9vnJ/MXZn5+nKPvJrfPO5oDPz6a+XfePmii23d/fjS5YSzHHlwGaFI4/v/mf33tR9ndYNWPD383nQOWXJs/v21FvjbknRWDXdc3or4oN/PM7N/Mnt/pSA5+N1/55Ct59Y7leTXP5SvVEfiDztc5aWsw6r0ls6/OF3Nrll3xcrZ//EGSa5Mrr87XciSH3ku+fP0HefnEiXxtzq2Daue/88mJ5JJRHhcAAAAApgFhfVPzcvW//U81P//ZkFtfdvnlSU4NWn7o5Sfzrf/73Rw5Xj975+W5/NJmh16ezU8dyJNr1+bJYds5Pw88tjnLb38kT9Xl9KMug3P07RzNwqIpN8zP0R8fyNHfnZ/58+ZnXo7m7aNJ5r2bt9+dnzt/q0ENnOlq7j/Ko3f9ozxau+y9rvzR60eytGFwPlLVkje/mZs+/Lu8+bkVebUyUv392s1uWp5Xb3o933r52/nKz2omiX3vg7yZpG00h/7VL/ODXJ2kUvrmxOt5Px25rjLSvudXSa5/Pz1n5mTp568del8AAAAAwCDC+nGy6OabkpcHD52/7PKrMvvUkcFPmHlTfmPICThvzyNPPZVqqZgf31lfl75Y/uwND2R5ozI0X5yXzLtzQNmZRvXtm5bBuWF+8bzfujPzv/92ikr187JwXvLjd44m+VEOzLszDzQppj+mmvU0UQ3DO7JicUeK0fW7kxu+UanxfqiY3PVzv5k3PzySpbd+I6/WdhD86pf5QeZkzWg7DS6+thgx//kF+dqHv8w7Sa7LdWmbnez9+IOiXv3sBdnTZP9q1gMAAABAc8L6cTL7zvvy1X//t/nhr2qXXpev/dN/kTv/n/8pm/9ywNjnXP7V+3JnS2VB5mf5Y4/k7bWbs/bnjxRlbioTsOb3N+epBhPLJklufySb39mczY+mEtgfyI/+Zn7u/P2B28//3c3ZXPfUA399IPNveKB4MKBu/fzMvyE5+vN3c+DnBzL/zgcGlcBJDuRHf5PcXj857DSpWX9evfdB3sycLKuG4W8eKsrg3JTkYJIsyrIr3slDn1ybV2/45aDa9T/55TvJFXf1PR5JaZqf/PKdfO2S3y4eDKhbf20WXZw89sn7+ckn7+Rrc357UAmc5PXsOZk8dEMxsW0fNesBAAAAoM/MshswZcz8jTz0jXsyd8Ar+n6e2/pH+dd1QX3m3pO1/9VvjGDnxSj7R/Jk1q5dm7WPvp0HnnqqbqT9YPN/d3Oe+idvZ/PatVm79skc+K3Go/AHOpqjP68tb1OMpn/3naNFS9Y8lafWpAj+G5XAefdo3s38LBxLdZx3n8vmtWvz5IEx7GMKev8fjuQHVyyqhO0fZPd77wyqD//lq7+YfPpB3r9peZ654p089J+7KiVyKoH51beO4sgf5NCnteVtitH0b378QXHMO76RV+9I9pxsUgKn0skw6lr5AAAAADANGFk/ntr/MI99M/nfntyfo9US9WfOpLZa/ex59+SR/+EP8xstd5NUyt28mxT16dcm/8fmPFkpPD9oBHutd5/L5trE+2+KevXzf7++pE6NA8/m2dyZzX2hfjGZ7YDpXg80L4Fz4PvP5uhvPdJCp8A0MfvyfH7GxZk7e6w7qk7eWkTz7x/ck8fOfDHPVGrWv/PJiXztkuuSm5KHfv5qXn4vWXHHNyqT0SY/eeXlPHPFXXn1pv79Hfo0uenqa5MUofszP/92nvl5zSGvqPz3zR/lsdSWt7k2K37nG1lR27whSuD85Gd/lx9ccVf+fMw1+wEAAABg6hLWj7PLv/SH2fxn9+XAXz2bv/rx3+fdD47n1My5mb/gN3Lnsgdy3+3XZdjc9sCTWdsXss/PA489ladqw++a8PzA9rVZ2zcL7e155LGFefbRZ3M0SeY9kM1PPTWoVM3Rv9yctWuP1i2tdAT8xYHc/k8eyfwcyJNrn0zzwe119ed/65G+EfcPPDZ0FfoD29fmyb+paXP95vOWZ/NTyzMlXPOVPPq1r4zDjt5Pz5nkpsuKcP66xX+QV5P85JVv5ysniy0euvraJNfmj++qGz3/Xle2n/xinrnr1qL0zM/fKZZXS+hU1Japef/gd7Psk6Q6gv+h65fnuryeb738cp5p2sa6+vNX3NU34v7RW4ce0f+TV76dh05WH30xzww5nwMAAAAATD0zent7e8tuBJThP7z79/kv5o2kHBGTkfcZAAAAgMlAzXoAAAAAACiZsB4AAAAAAEomrAcAAAAAgJIJ6wEAAAAAoGTCegAAAAAAKJmwHgAAAAAASiasZ9q6dOZFOXn2TNnN4Dw6efZMLp15UdnNAAAAAIBhCeuZtn7t0jl54+SHZTeD8+iNkx/m1y6dU3YzAAAAAGBYwnqmrS/N+Xw+OPNxXjv+CyPsp5iTZ8/kteO/yAdnPs6X5ny+7OYAAAAAwLBm9Pb29pbdCCjL2d5z+dsT/5CfnT6R0+c+K7s5jJNLZ16UX7t0Tr405/OZNUOfJAAAAAATn7AeAAAAAABKZsgpAAAAAACUTFgPAAAAAAAlE9YDAAAAAEDJhPUAAAAAAFAyYT0AAAAAAJRMWA8AAAAAACUT1gMAAAAAQMmE9QAAAAAAUDJhPQAAAAAAlExYDwAAAAAAJRPWAwAAAABAyYT1AAAAAABQMmE9AAAAAACU7KKyGwATydmzvTl37lzO9famt7fs1gAAAAAwmcyYkcyYMSOzZs7MrFkzym4Ok8yM3l6RJJw715szn52LywEAAACA8TBjxozMvmhmZs4U2tMaYT3T3tmz53Lms3NlNwMAAACAKWj2RTMza5Zq5AzPWcK0Vh1RDwAAAADnw5nPzuXcOeOlGZ6wnmlNUA8AAADA+SaDohXCeqats2d71agHAAAA4Lzr7e3N2bNyKIYmrGfaOntOjyYAAAAAF4YsiuEI65m2jKoHAAAA4EKRRTEcYT3Tls9HAAAAAC4UWRTDEdYDAAAAAEDJhPUAAAAAAFAyYT0AAAAAAJRMWA8AAAAAACUT1gMAAAAAQMmE9QAAAAAAUDJhPQAAAPD/t3fv4VXV977vP7nNJGISsEC4JSQieFJORLSIDU0bLp5d6VM52VrB1S5ET7ks2+qu1bphCabYBcvqsltXawHXg5RTt2DtzsY+xZ5TgVhKSrSCMSdlC2JCLkBAgYCQEHI5f4wxM8ccc4w5Z0KSkcv79Tw8zZxzXH5zznSM+Bnf8f0BAACPEdYDAAAAAAAAAOAxwnoAAAAAAAAAADxGWA8AAAAAAAAAgMcI6wEAAAAAAAAA8BhhPQAAAAAAAAAAHiOsBwAAAAAAAADAY4T1AAAAAAAAAAB4jLAeAAAAAAAAAACPEdYDAAAAAAAAAOAxwnqgjzVsv1eLtp/0ehgA0Cc45gEAAAAAEB3CeqCPpS98VNPvf1jb692Xadh+r5KTEiL/+/Zraui7oQNAl0U+5p3U9m9HcbxLSggO/etf06KkBD3zrvn43fVKXre/8+WG7fcGHyPN5d2227D9XnNb+/VM0nqV9fQHMaAY30nnZ+vyelTnKddz1Ult//a95u9FVz9zviMA/UGzGsrf0vaXfq4XXnpNfyw/qeYwS5etczuu7tcztuNk2TqnY+l6PWM7NpetS4hwQTzS8RwAAPQ3hPVAr9qvZ0KCi3wVqVhLJtmfDw4eFvy6Vk3NV8x/e1WktSrpfHxFTUe3aoFn7wsAnHT3mFeoLUctx7c/r5XW7LUcA6+o+teFtn3N1gt/Xquir94bciGgYfu9yrpf2vLI7MCT4+/TtuYrKlnj31etttxt/Lxt4Zje+0gGpDFa+MhaFb3gdkF4jBa+eiXo+/F/b8HnLvPfq/cp3baFhu0Pa8nUR7VwvCTdriW/PqgCy8UWAOjPGt//lRZNTVHWzLu05NEf678+uliFMzM0Yuq92vD+Ocd1Zq7aK301NDgvW5evg3fNDjpOzlxVqy13+//236uiu7eq+tWVeuLVWmW9YJ736l/Tzyu36oWw57AxWvizrTrocK4EAAD9U7zXAwAGv7UqaV6pmV4PAwD6RB8d88aPUfr4lWrylzFaQoj0ha+raWFvD2Cw2K9nkvJV5PJq1u8W254p1Jajr2vh+JPa/u0MLfmdfY01Sr7f8vDuraq2h/X1r+mR+6erpPn2zqfSFz6qoqR8PTPvip64zf+s2z5MSWtCn1uzV02rbg99HgB6SPO767Xgq2uMC86TCvXIE/fpy/qrXnvm59pxtFg/nHVCjX/+k564Lcm25u164uhWLZq0XmX+8+S761VQuVXVq6K9aDxGC199XcbxsViFP3s9cHytf02LJi3WDpc1d0xK0JKgZ/hvFAAA+iMq64G+Vv+aFoW0Zgi9nX/H/Rm2ytQ1KrBWpYb5YxwA+o2ojnm2yvuvrpHW5gdV4mfdX9y5tGN7AId1jH9GNaF/nYK1/n1laMnv/D+vV0nffSL9zO16IqgS3lrNGbj7IPD662Y1vOR0R0RQZb3jHWD79cykYhUetQdERogVXP3pUsHvdLeZ/x9BPYDe1LxH//otM6jX7fr565u0Iv2czqY/pI07t2phuiTtV9G31qmksyeO5a6zSYu1w/o3/VfXSL9brCz/46A7jPzLmRdU311vObdZz2Fmtb55B1mT6/Hb/o+gHgCA/oiwHugL1rBqfLam/65YJf4wor5aO+7OUpZtFdrgABiwunzM61obnJmr7OFyobb8eq10d6EWyH78NMJlYx3rsdQaZKxUQV99Nv1WaM/koNcce8SHXmQJutBsv6hc/5oWJeVLf7YG/hbj79O2o4UqnhSpBzMAeKNxV7Ge6TxQ7tcP5+eqYMEy/dOCh1XcOlt3fsV8qWG9duzyt8OxXxS1tLYJe8HR0gZHkm5b2blcoKWb8S9wR5Jftap/N11ZTsdaAADQrxHWA30hKKzKUtbdxao2g6uyt9doga1PJQAMaH1xzOucMPZh6Weva2G2JBXqhT+vtQTGwT16G7Y/r6I1sx0rCdMXvu4QdgwR9a9pUdIeFTj0ljfcrieaZ6skyd7zuCuV9Se1/ceLNX3NWhV9NcxktJOKVXi0VoVvZnRWmIbeSeFwtxkTrgPoA/+r/FfBTzScVIOkrP80W9PTz+mspV39hvL/1adjC1JfpYP246TlHxPOAgDQfxHWA33idhWs8YdVY5Q1VTpYdVLSSVVXFqrwK6F9KmmDA2Dg6uoxryttcE5q+7cTlPxj6QV7W5ap2Uq3VB42/Xm6lkwyQ4n61/TIm4WqdmuT0hn+57sG+oPTfj3zY+mFznYIY7TwVevPr3dOAvtE86OqnuRUYW9oqDoYZj9GS5snVq2U6x1j/upRf/sb87uaucoM/p2qUJtrteVucdEbgGe+/tIRHXy1UCeef1j/uiv0dcfWbUn5KrK2v3EM0oPb4JRYthNo6ebUPsfkeswspOIeAIB+jLAe6G1mu4eZ89aq6G3jD+msSYXacbRaqt+jYhWqwPYHc/XRYhX9OUJ/XtrgAOiPunzMq1b172zHtwhtcCQF9/h161n/VcsEpOPv07agyvExWviqJXy29vodUn3Pb9cTr2Zri1ule1Dl+u16IqjHcXBYlHV/cfg2OFb1VTro0ALO1fj79MJdxdpiqwZt2P6wlkzdq20Lo52cEQC6L2tSYchzf3xoskaMnKzCdXuC7vBZMMk4wgW3bvO3sZHkMvdG4C6v4DY4BauuBF3YDLqTyXbeavhLsXZMzXa4iFmtardJuwEAQL9AWA/0pvoqHfT/oTw+Swsqq9QgKT17ulRZpbK/FEuO1YBUvAAYgLp7zOtKaOs46eheFalQC+6W7UJncPDRsP3eyO1U3CoUBzV/P2X3aveiR+wtcow7JqxhUfWvC4M//zAXlRtcz3/uPZbTF76orBcCVadl6xKUFe5uCQDoYelfKQw5rq343Wmd/N0/2Z51vnNWkvTuehVUblX10Sz9PGILr5Pa/m1/Fb55cfndPSpas1WFb77icqfTfm25v1hF89yOjfSyBwCgPyOsB3pRw1+KJbOqJqiH820r1fTqbFW/KYc/5PerZC1/RAMYeLp1zHt3j4ocq/+iZQQZB3/9ora9WhsU5tqlL3zdIeR3qGwcsuGvvze98RkaFzf2qMBx8kKjWvSHRzOUnLReZfWv6ZH7p6vAulzI3Qym+tf0yP0Ovwv1VQrXSMd/oabgbbMNhPaqybXPPgD0gvH36V83FQYdd4o3r9P6zcWWZ8ZowaafOU+k/e56JX9VKnn1PqWPv0/bHqlWlkNgX7YuQ0t+t0YFSQ9LP/NPRrtSM3VS2184qC3336eFj0gFDheXy9blq+jurVriNA9LxOMsAADwGmE90Gv2a0tQGHG7nrD2VnZpgWNUywylfskABofuHfPK3l4TpvovHLN3fVKGiu+qNdugBIe5TKDXDe/uMSrpv+qfJ+Bg5+TATmauuqKSNWtUMGmxdmiNY3AUpP41LZq0WNP//HpIkNXwl2LtCHOXhb/vc8HatSo5ulUL1uaHTCIMAL0ta/FW7Xi+sPNY1fCHn+uFP5z0v6oFz/9eWxbbj2T79UxSgpJfyDJDd9NtK9X0M+mRpAQt2n6yc+lA6xzrsfKktn87Q8V3vWg8d9tKlSg/6G6whu33GsdItwuZ9dVhj7MAAMB7hPVAb3l3j4rWPKqF480/zu3/Ji3WjqCey0bgUPb2QW253z246pykatJilxYCAOCBbh3z9quk0qX6T1JnuJGUoKzOCwH+54yQvqn5Ski/cn/I4Q/tk9ftd5/gz6kNTmeP9iGgc2Jd89/bs213H7wo/dj62RQBA94AACAASURBVNyr7e8Hr1Myz7L8vD0On7NxfmvYfq+SJ1Xrh5ZKfev3knV/sa3djv+CjH0/KzWzc44B2/iGXAsjAH0vSdMeel2Hju3Vlud/qCVzZ6tg7gN65PmtKjl2RNseullJncv6j2PGXUqOdwOZx7MX9LCSbaF9QLW2fNt6cdowc9WVQGD/7npl3T9dJUFzi9jOyV9d49DWDAAA9CcxHR0dHV4PAvBC8+VWr4cAAAAAAACAISQpMd7rIaAfo7IeAAAAAAAAAACPEdYDAAAAAAAAAOAxwnoAAACgD8Q+lyvfb6uNB3WvyDd/oeLrrnI7fapa8d/PVdJzJR7sGwAAABj8aJIEAAAA9Lb9T8q3e4FadmYZjyc8oNY5z8u3rUStjxX0/P7qXpFv2fPdqsxpW1OhK05z3dftUewnX1Trf41yvPufVNLaHV3Y8wK17Pyp2s1Hsc8tVOyi7WqdEFgi9rlc+fTvan6sQDG/XajEd76uy794QE6TcMU+lyvfbuszX1TrpuDtAQAAAP0JYT0AAADQq0qUsHaH2tZUdAbRktS+6FG1L/uBEr5iD8erFf/9byr+k3Db/KaSXnF+pf2B36vlWw+oZecDQc/H/HahEo/9k5rNiwOxz+UqfuLv1fKtLPdxz/+B4mzPxi7LdfmPiOCwXbf/VM07fxruTQTsf1JJa23v4yuT5Vv2pNo7t1miuN1S25poL24EjyfmtwuVuGyhRGAPAACAfiqmo6PDqRAFGPSaL7d6PQQAADDomcF71r93huRB9j+ppLVHulTxHTlkN8T8dqESX/l7l0ZrBP3+7ZYoYf6v1BHN2OpekW/ZUbVaw/quMMP6Ftv6IZX0kd7P9Y+6Vtr7Lz7EPBD5swMAAOgtSYnUTsMdvx0AAABArzCDej2qy26tbm7/qS4/sFCJy3IV49Z+5mpYwutIlfWxz7lVzHvHuPvgbcU+JsW98vegFj2R2uAAAAAAA01/+3scAAAAGAQsQX2EMLnjW9vVnPGkktbmKm6OpQI/bM93exucQdqPfcIDatlp/Ni+s+KqNhXz218pTl9U65epqgcAAED/RBscDFm0wQEAAL3F2r4les4Bf1QTqVaHXhTomTY4oT3r3dl61l/F+tbJYdvWVKjtL/bJYsOYE/q5+z+LdlrgAAAAj9EGB+Hw2wEAAAD0sPbHKtSsasV/PzfCRLEms11N6y8qZC8n6PjWP6ntlR8ofv8DoW1y6l5R/G6pbY1L9b61h7tLX3g/5zY4UVbsmz3rnbRF097HNsFs+2MVan7MuHgR0/nYMk5/+579TyrpN5PC3r3gD+qjGgcAAADgIcJ6AAAAoFdkWcJ3M3j+TmhgbFThZ4dplVOgK2sWKGntk2oLCtqrFf+vzyt2zr+r2SGE7vjWdjV/y7Lsb3ao/YHfu04A2/5YhVqif3M96/afqnlnNAtWK7Za6viKc3V86OS7JYo3K+oJ6gEAANDfEdYDAAAAva5aMZ98UR3d7Sl/+0/VMidXvu/7q8jDTV5rvuZU0f+Jvde9A2s1vv6u+GXRTjy7IKqlrsr+/1D8J18cfL35AQAAABHWAwAAAL0u5re/Utz1X9flqwiZ2x+rUMtzuUr8/h/V/snfFXu92+S1WcHtdMK0vzFaxChMq5urb4PTFW799wNjNarkncfjVHVfoCtXOTEtAAAA0FdivR4AAAAAMKjVvaKEV/6utu84BetGwNw+MYpJT/c/aUyy+snfFSup/Wuzw7TOCezbt3aHpB3yzc9Vwv7AS7HP5UYI6vua8Vkoy98SqFox5t0BgYsKFcETxN4+T22fPK/E+blKmm/cadBqbXdT94p883Pl+211n70LAAAAoLuorMeQFRMjdUT8L1wAAIDui30uV77dYSZZrduj2E+kju+4hfUlSpj/A8VJkhaoZWdFZ3V8zG8XKmn+3xW2+n3CA2rZ+YD5wJjwNjCR6wLXyWZ7RpY6rpdia6ul26O4GGF+Fm3fKbCE87+X/jVXCV/7vZp3Om3DqJy/4rrNo8aFje6/CQAAgB4TE+P1CNDfxXR0EFdiaGq50qb2dn79AQBAL9j/pJLW7pDm/LuarT3l/c9b2ZdRIOSPLlC39ah32F5w6G+E++3b/PuQrU+90zrRcBhr3SvyLXs++tt5zXHEPLdQsYsCFyD8LXCi4vj+AQAAvBcbGyNfQvR/XWHoIazHkNXW1qErrW1eDwMAAKDnhYTk4UP/zjA8KOguUcL8X6mjCz3rW3u1Uh8AAGBgS4iPU1wc5fVwR1iPIe1yS5v4vwAAAAAAAAB6U0xMjBJ9VNUjPCaYxZCWEM//BQAAAAAAANC7yKAQDX5LMKTFxsZwsAQAAAAAAECvSYiPVWws7W8QGW1wAEnt7R260tpOSxwAAAAAAAD0iJiYGIJ6dAlhPWDR1tah9vZ2tXd0iP9nAAAAAAAAoCtiYoyQPi42lslk0WWE9QAAAAAAAAAAeIxm3QAAAAAAAAAAeIywHgAAAAAAAAAAjxHWAwAAAAAAAADgsXivBwAMFR0dHTp//ryam5vV1tbm9XAADEFxcXFKSkpSamqqYmKY6Aih/OeqpqZmtbdzrgIwsMTGxik5uW/OcxwvAQxkfXm8BNA1TDAL9IGOjg59+umn8vl8GjZsmOLjuU4GoO+1trbq4sWLamlp0ciRI/nDHEH856r4+AQlJV+juLg4r4cEAF3S1tam5qZLam290qvnOY6XAAa6vjpeAug6wnqgDzQ2NkqS0tLSPB4JAHBMgrPGxka1t3do2LUpXg8FAK7Kxc8vKDY2ptfOcxwvAQwWvX28BNB19KwH+kBzc7OGDRvm9TAAQJI0bNgwNTc3ez0M9DNNTc1KSr7G62EAwFVLSr5GTU29d57jeAlgsOjt4yWAriOsB/pAW1sbrW8A9Bvx8fHMnYEQ7e1ttHIAMCjExcX1ah95jpcABovePl4C6DrCegAAAAAAAAAAPEZYDwAAAAAAAACAx+jLAQAAAAAAAKBv1P0P6cFfOryQI23+hTShz0cE9BtU1gMAAAAAAAAA4DEq6wEAAAAAAAD0jg92S2etTwyXVv6z87JHdktHLI+Ts6Xbs3txcED/QlgPAAAAAAAAoOf97d+kGY9dxQaypfc+kb7UYyMC+jXCeqCfO3agVJey85QzwuHFs4dUWt6k8QW3aKLjy6U6pBzlWVY+dqBE9cnTlJczIuhnl73rQEm9kqflKWfEWR0qLVdDS5jBpmar4BankQAABq9zOvzeMV0zY5pze9G6cpWeSNLUGTcqzeHlxiNlOqwbNWPy8MAqH+7VieRczZg8POhnR9btn/tI71We0pUwo02ZmK9c+qAC8Ejdh2W6lDlTU5wOaec+0nuVzRo7y+V4KoU/ptaVq/TY+aiOc3Uf7lWNspR3U0aUAze2HT2fRk61vs9aVeyr1oUurxfOOR1+r0KXx+YrV+UqPdYc1boRzytBu4jwnUQ4x1k1HilT5akkZYb7foHB6Es/kg5Ol16aK738f0m7/yGKlQ5Jc74vLf2F9NDd0s29Pkqg3yCsB/q1s0odOUL15aU6NC1P11SVqMrhb+SqkhJVWR770o0AfkTOeCWVHNKhMf6w/5g+O+/TiGy3cD6cEcrJmyaVlqtpQoFuybS+dkwHSqqkkX0Q1JeukrbcIG16sPf3Zd/v6sPSljekKP+bJli1tOxOKfslaeXsHhjQHmnuLyOPZ9s90u75gc9r2z1S1ffMMZhjmvOWtCgrut2uz5F0Fe8haP8ABov04VLlvnJp1kRdeq9Cn4Zc2D2vyn2ngp7xh0lpk8cpad9HOjzKH7DU6uwFn9Iyo0pqgg2/UTOmyjlYqStX6TFpBAkJAM+cU8p1w3WiskyHp87UNTV7VeOQXtfs26say+OE0YFgue7MeSUMn+gS1EuZs7J0dl+56iaED4Qn3JSrS+9V6L0jKdGF1hOmKS9kg0ZY3jg8yuA7YhBfq4p9x6PYjt9wXZMoXe4cX60q9u1VRTcvyjYeKVNl07jQCxi+JKU4jDNx6kxN6cq2T7VIagn5fjuldOHiCTDQ3DzH/O/WbGn2nChWSDb+J+MW6eYxvTgwoP8hrAf6tREakTlCeTqgkqpjKrilILiCPkJlvTRR2en1Kq86ppwRE3X2UL3Oq0Xny0vU4F/kfLlKGgJrpF5foFsyg6vojeV9Sp+Wp5y8bB0oKdEB+QN7I6hvTp+mvEz1vrw7pNUPSeuzIwS+e6S5D3Vt25Med74IULtZWl0sLX2rm0G9pNrd0tGp0uooQ+pt90gvV4Y+v7QLwfpVMT+/pw9JeREWrd0sLdl5FRcyAAxsw5U2ebimqkyHj0gzZuQHhxcRqw4zlDn6uCprajVleIYajxzXBbXoQuVefepf5EKFSi1Zf8rEfOVea62iNy8G+EZr6owbNWNiuUr3lUv+wL4uUHFJVg/AO8OVNmG4ZqhcpTW1yrspP/iYFK6K21rZ3nlMTDWqtOvKVXrmOuXNMv4QmzBLqrAeA13GMmVGlir2Vagiuf/ecRQIucO4sFelxyyPj+1V6ZlA8F33ocNFkaDzSqpSUs7rwoVUZU5NUaMUOF993qwridcFn7/qzuiCkjRiuKTPI7+HzrsYZjn/odxZcU9Qj6HmrcekhyW995ykndKM70svHpDu7EbBBjCIENYDA0HmLSrIlBnON8j+52pwZX2qsi3h/Yic8Uot+UzHJH3W0GKG8cZr7m1wRignr0A5QW1w/K9N1C0F0oGSEpV8Yu7x+oJeCOojhO1vPyS97fC8PVy2P3arzN92j7TbYXu1m6Ulzxo/v3yn9LLbgKbawmqX8S/JcVm/UNq1LvBw0RvSIrd9RbA+x/bZVEpzn7U8tn12Ry3va14PVf6HjMHK5btzu1gyZDWo4q/HlDTlS5r8hVjXpdo/O6K/HW7WxC/nKr0PRwfYpU2eqRmSS6sEW2W9Gaqnda47Tin7zqhO0tlTLUEtHNzbFdyoGbNudL4YMGGa8lSu0s7qxVRlziKoB/qXUzr0Xq0SJ03X9deFOc+dOaryo83KmDFVI/twdL3KX6Xu0roruPLaDOQnTFPetR/pvSPSFMvxru7DvSq9IEnnVbqvOrCRlFRpX5kuha1kz9CIlGrVnPhIjRMit3G5ei361Hoh1pFPiZZHaZNnKm+y+9LRtLSZYLsoErSOec5qTs5V3k2WbZwLviDs/2xTJuZrxBnjHBf4noLPcYFzmNH6p3l0rvJcxlf34V7VXB6tqbP64vMH+plzVdLHMi96nZM+rpLONXs8KMB7hPVAP3bsgL/tjVnVPiJHeQWWsDdiZb1khOvGqxMLeqBNTc0BlXwSHMKc/+SAjmWGG0N32QPwPuYP6sMF2P5llj7nMM4ox1+7WVrycXRjKl1lVPn72cP/pw9JKw9JK83HPd0GJ1orD0nfMd+X9SJESBucPdLcPwUvA1O6ciaf0buHPpBv+s2aOCw0yGi/eEwfHDqtlP/tNoJ6eObwe3vNtjeWQCkoFYmmn2+GcjsrQq/+oB9aRXleNR/WagJVi0A/MlqTrz+rg0cq5MvN1YRrHM5zl2pVeeRTDbvh1kER1AeOTf52MOZFR78I/dEbT5+Tho9Tw3t7VTM2V4knjH7teTe57bFWFfuMljvOgX2tzl6QpFOqqbuxD6rru9cGx7G63rzom5Ls0wn7sv5WNuHmMbHdsXXlVHClfeasaZoxKz3QE3+C2R/f/Mw6A3m3c9y5j/Re5TmlTc1X7vDAe7AH+RdSspQ3g3MTACCAsB7oxybeUqCJZnW7v92M07RO9p718qVr2oQmlZuhui99mnJ0SOVOs8Pa2uDYK/MD/Pv3KX1agW3C22M6YI7B3y+/19Q6BMD+wDyali3R8rehWfqWlLlJWq/QwN6/TE/uN5K8dcZ7D2k90422P70t40FpXo40Vy5hvDnmeYVSqfruMxxA4kfm6Jbscv3t4AfSrbdoYrLlxaZj+uBgreKyv6SckZzO4Z0pM/I1xQyY3IOR0J71SslS3nVnOqvwE0bnaoo+cm53YAtVOi8M2JfzV/X7HKoU68rNysiuTF4IoDfFf+FG5bZU6MOKCmnaNE1IsrzYXKvKijrFZk7XlC8MjvOcUeHtD6TdJ1wN6WnuG62pM65RzSkpbWqKdE4KtLGxtICx3bVU96FR1Z3rdryrO6MLSlXmRPVBdX3gomy3lrH2c68rV6klob/SdEHScEm1qjnVopSJ5nL2iyGm0ODczQVdbkm1zHXik84c1wXfaE2NdGFj+I2aMSvwMG3yTOUll6v0mP/78mmkGeQDAGA1OP7qAYYEo0LevXVNaFubgkzzOUkjcvJkFOUb/ej9k8SG256hRQ3lJWpIzVZBQYF1b5YWOYHq/Z5n652ekS3pWal0XSDc3bdTUqFz2Lvape1MUFsY06T5xv+WrpJeniLtesN4XHuHVPWQtMzfpsUfjBcGlulJ9ur5IGa1frTs7XQWWdfNkjYd6sYAu2DlIUk50rZlodX76x/qwx78A1fS+Gn6UtsB/e39A4HAvumYDrxfK2V+SdPGJ0XcBtBnht9oq0S0L3DO9lqG8iaYLQlkbXcQvFzENgctp1S575RSJuYrzxKOBFU8Ok6OCMBrSWNzdVNbuT4sLw8E9s21qiivk8ZP19Sxg/U8ZwTT4Y5vQa+d+0jNatGFygrjxWN7VXomVSmdFy9rVfHeJRkXAc5oxKxpEfZ/TodPnFfC6FxNmCBdOlHRO9X1jq3RomOdWNdNWnKSdO6SGiXpiHuQ7tS3/sIxW69728UOnbuk5s7JZS/ockuSRsyYptxuvRtjcmApuvcFABi6COuBAailwV4NH+BLdn7etpSSU8K9bp1g1t+Cx9qWJyBoslrXqvyrMVuaJ+mdPVLebEnZ0iRJNdVSnhnyVlVK877nvHp3etbnrZN2WV7LmC1testoGeMP+aMKmSvD9Ki3Kwz86K+e97epWeJQuV8rSVOcW+xY++x3iUPbHseLHU4956e6b3alywUBt+cRIinzFn1JB/S3Dyrly7lOZw4ZQf0tmYM1wMBgEBKCWIQ9BXXyKfHaMC9bq/g7AxanSlVbVb+1OhNAv5A0YZpuUrk+rDikhCkjdO6wEdTnThga57ngFizBEvx/23dWiVsvZhrHvM5KfN/o6Hdad0yftqQq0wyNp4xNVemxctVNCDcpbTcEXSg17ipI7M7dTReqg3vy+8zfjWuTlNDSrAvnPtKJU9LIqZaw3XKhIMHnk1LGuR//bdX6kr/tkLm9ujO64EtSZsTzjO3uLYc7zty+b0J8AIBEWA8MSG6tZvxV9GHVVKmhJUnZToX0lh741glm/Yy2PJ17c5h8tpd8rVBa/SezDU2WNGeqtHu3tMiscn9b0tM9MCmqK0uLmS5NwHqVPetrd0t63PmOgVqnHvdTLfsq7GIf+D3S3F9aHs+WdjmE6etzJNk+A39LHj9/eyBXLhPMSlTah5GUebNuunJAH3xwRNdk3ExQj37Pub2Av+dvBHXH9GlLkjKdMgtLT+fABLP+F20tFKLqlw+gP0iakKuc1nJV/n9HlTw+d8gE9ZJ7SOu/6yg8e2V9NGpVccysqvc/NWGaMs/s1Ykj5zShlwLjxiPHdSFlXPdav7i1wRmerjRfhWoqjfcTdBHAcqHAaH1jC/ztfMG/c2mjhkuVFXpPuRrbdF4JwycqTcOjO89Y2rJljvappinMhQJF+10Dg8yXvye9KBkHoi9LL/5C+vIYjwcFeI+wHhiAultZf/ZQqcobWpR6fYFz9fuFJrX4kpXaE4O8WrVVClSO3yBpp1FNniEpc4p01AyrS/8k1xY4QeF1NziFzm+7Bc1dDcej8JtnjclfnSaCrTkcfDdBrWXWgowHg+8MsAqZ4NVvtrSrmxc8Mh6UdlnuVLC33rHu2/959mWf/0EjVqmTbtHt41sVn+RT6DR8QP/S3cp6ay9hx+rOz5t1pbMtAYDBI1YpWdN069hWxSUOrfNcVJX1Nhc62+Cc73Jlfd2H5sSmtlB+wk1ZOruvQhXJkXq5d8+FppbQCnkH9osXaZNnBv/ZGFStP1zXJErSaE3xr1NXrtJjCp3bJNydVQ6V9dbWbjUtqcq8qQtXGWwXCgA4yJoj/cD/IFv6gcvd8sAQQ1gPDBhndejASUldqaw/q0vNkpIl1RxQeYNCJoedODJVVZ8Ewn9feraci+5LHSeoDW6DIyk1WwW39HD/+ow50qRnpX3VRlidYQnv3yk2qt3taqsUtg1NuJ7163OMQH7pW9LSx1zCbeu+XCrju9sGR5Jxx0ChtMsM51c/Li3ZJC0y2+PsrpTmZIffpGuFu8MFB3tF+7Z7pN3zQ9sFOXK4mOA0lqrvSUt/afzvO/dIGVHcdQCbWPmSfF4PAgijVhUfXlKiulJZf06XLss4V9WVq/KUNHJqflB15ITrUlVzLBBmJYye6FApb2z705BTVejktpEnFQTgjVglJA6V89w5Hf7Q+Cs6qsp6W+934zhWq4p9slXWB+4wqnPYa92He1VzebSmznD6IyxDuRPPqPRYmQ5f2/MTcRsT7IZjniOSnXds7zvvn5jceO5UZ8/9xqZmKWVcD7XzuaDLLZJ0XjX7yiWnyc0BdEGT1wMA+j3CemBAaFFD+SGlT8vTNVUNOhvNKmcPqbS8QUrP1oiz5SrVNBUUOMTwmbeoIDPy5gIT1Pr1chuc2o+lSTeYD7KkbElVVcbPGdmSKqXaMC1waj+WY7V7ND3rVx6SVvqfv5o3cRVtcPyTr0qBiweSMVFr5ibpaKG0KYp2MZMeD36vTpX166O9oNBN1tY528xWOyufk5blOPfjBzBAnVfNPilz1kRdes+lRNTO7OWr0VlKO2e0Gsib5RDSRDU57HBNmZGvKdanaIMDoF9q0aeVH2nk1Jm6puaUMTlqJJ3HwSjbiYUwL2hqdPhj4oRpylO5Siv36nJfX9g816DGllSNtezTGtCnTMxX3k3Br1VeSFXmrJlKOVKmymN7VaF8jWhqUYLTBF2Rqvp99tZLRn/65tG5yps83Ljz68NaTejOvCfR3FEQ1dxjwAD2lX+W9C9S7l+lsRGWPfF3SWOkr0zvg4EB/QthPdDf1Xym8750TcvL0QhJx6qCXw6uePcp3d+M/kKT1FmBP1FnD5WqpCS0Mj6UMUmsOieTTdUXersnvZOaw1L2HYHH2VOll/19681+6qWr5NoC551iI6geiGo3m+H8ndLLMlrGrJR5oWGTpOJAkN+5zsdynXDWM2avf8c+/1nmpL050jtdmQcAQH/UePqcrnS2Fzinw7bXg6shU5XpD2I+b5Y6K0oz1HikTKX7ojtXZc66Tmf9k/ylXEcYD2BgqDujC75AYF5XE/yyvxWYwaeRjpN3BLt0pEylp1qklCylBd1l5F/ffC4xygm2J0xT3rUf6b3KvXqvKVczRjWETJIaxK2Nj8/9wkDw+wywt0Bzq8bvvENglrn9yTM1VUZgf8Htc+tSGxwjqNfEfM0wB5A2eaamHilzCN2D7+ByvFMiwuTm9KzHkDD7p9LuEdL6nZGXHfsN6cWfSrOHzvwlgB9hPdDf2Srfgyd5dap4D6yXF81ybm5x6WsfGIluKejhdjedzDYvSywBrlMfdNcWOGbY/XQ0LVwssiO0lekr9h7wfnnrpHdypKrHQ9vN1ByWgutJveVvwRO2N32WtOmQsezch+hjDwxgwf2EjQp3K9fWBxOmaYZ9O5Oj3++EWRFCp6gq8gGgD9mOS/bjY+TjoPUYG2h5M8WyTshdRk53HkUy/EZjEm9z/cDPPaOrx3s7p/NKuG2G9L0P2aD9fGGbsDyKfbiJuG9F0yIIGCRm/8j4B8AVYT2A/qd0k6THpTyzF/rRcAvb+q8vfUvSTiPEj/RXsb2nu1M7HSnMpLJW9p7z0tX1rHdQusrsY28G+bWbpSWW3vtPvxHlvpzWdWipc/RZ597+Tj3vJWmO+b/rzQsKu6Icz6I3pEV7pLk5LlX4AAAAAAAAgx9hPYD+Z0ux0ctcMiqvuyxMSJy3LhDiO1XrO4kUILtOMHsVPeud5K2Tdlkeu1Xg+4V7f1ezbgjzoorfyu58Z2ZrIwAAAAAAgCEqpqOjo8PrQQCD3fHjxzVu3DivhwEAnTguwe748eMaOSrd62EAQI/49HRDr53nOF4CGEx683gJoOtivR4AAAAAAAAAAABDHWE9AAAAAAAAAAAeI6wHAAAAAAAAAMBjhPVAH4iLi1Nra6vXwwAASVJra6vi4uK8Hgb6mdjYOLW1tXk9DAC4am1tbYqN7b3zHMdLAINFbx8vAXQdYT3QB5KSknTx4kWvhwEAkqSLFy8qKSnJ62Ggn0lOTlJz0yWvhwEAV6256ZKSk3vvPMfxEsBg0dvHSwBdR1gP9IHU1FS1tLSosbGRCvuuKF0lLdvc/fW33SOt39Nz4xloajdLc++Rah1e23ZP1z7b9TnSturg9aP9bNfnXN332OP2SHNzpNJon/dKD42ndFXn70Fra6saGxvV0tKi1NTUHhklBo/U1FS1tl7Rxc8vUDEKYEBqa2vTxc8vqLX1Sq+e5zheAhjo+up4CaDr4r0eADAUxMTEaOTIkTp//rw+++wz/qiP1mcXNe5Ko04dP65WSXr/GY37b/+v6+Kt927RqW9mdD6Ob2zR6KYzOn78eMR1Df+HzvzfT6jZ5dX436/Q6Nezwy4TWO5IhH0587+HpA0rlLBggy6MDbyWtGGurtNPdXzFl4197J+tU/+yUG6Xf+J3/k+NnnW/jscdl45bX6lVyv9TqYT//KLOHD/usnawpCYptbFBp477jG1bP9tw3n9G496Wmv/L16PeV8TtRfweDc3/ZZfO3Bp4nLRhrlLHb9Gpb57RdZL02XGdsQ7p/f+pcZnLdCrruFqjGupfdd0/Pqlo61Dsv5+RxP/+5xrdpfE4OLFdo1cXS/du0am444r7LE5JSUkaOXKk5uvB8wAAFQNJREFUYmJiurlRDFbWc1XjubNqb+dcBWBgiY2NU3Jy75/nOF4CGOj66ngJoOsI64E+EhMTo7S0NKWlpXk9lIGjepiUkKbR48YFHqtQ2rUudNn1OYpPS9c4/7KSlOaTzlxnPBduXcmoQl/ysa6zrm+X5pM0LPwykrT8TWm5w/Olq6TVch+DjIPyOEn6+v8u/fgXSulcdo+0T9LTd2vcOHMs1s8m5L08az54UuP2mT9Oelza9KBU+0epRtJ/m6vgtadKW96QnPLkZEnWz9f62braI/2jEawnhezLZulb0qKscEsYqocF3of7QtKyO5X0hXEKGl7nezBvW//COI0bt0ea+1DQ2qP/cVPgQdh93S3tujton1pySMqzLVa7WVqyU/HzZyrSr07AHun1I5KOBI/Hkcvvde1m6cfmuq8v0bjX3dYP871jyOFcBQDR4XgJAAB6A2E9gP5nfY70tuXx3GclFUpPR7n+tnuklyvNBw8Z25pX2KND7LpqaUuxEUpHI2+dNC9HWn+HtHK2tO2XxvOrcywLVZqfjSkoWLYFuKWrpC3mz795VnraFiqbgbLBDLDty4TjX78z9K2WlllCcLdtrc+R3p4qzYoiqO81lrB6fY6UbV44sH5mEVVJR11e+s2z0ryXuhaGr38oiosSMn7Xd98Q+rz/gs28l4zfHyf+ZZY+R1APAAAAAEA/QFgPoP9ZeUhaKSM4rbIElqWrJBVLc4ud11tq/u+iN6RFMoLMqu8ZYWXpKuntMOtKknow0LdfcPA7eqf0sss69mD1O49LS/5kfBYvVwYH3tvukXbPjxzm2pWuMj7TleEWmi0tnSpt2SzlRbn93zxrhMudQf2dkh6Xdj1ohsI5we+vdJW0ulhh73YYiGqqpTzLhYfazcbFiC0ugbmT0lXG787TXfxu/fwXq5a+JWVuktYrNLD3L9OVCzIAAAAAAKBXEdYD6KeqpSqn593b4ERmW9ca5pttcCILE/jbg8/O1i4Oler+/fnHs+2e0Peb8aC0y/x516EoxhaFd4ql7EJjstiQtjNTAhXWs+ZLL++Uah+Moup6T3C4XLpJyrYE8xkPSrvmGAH+XMtq3Q2Kjz4bfEdBV7xsuViyOkd6+iVJlcbFhE6WZSY93sXtb5IWWX7H9u0M3n6kavnazeZFDNnuorAI1zKodJX08hRp1xvm9u6Qqh6Slvn362/7UxhYBgAAAAAA9AuE9Riyzl9s8XoICKfsV0o9KknPSt9t1ecvLFF7c5tSJTVdbNEV2+IJrZLv8hVdtHyvsZc7dG1rq/FdO6wb9Pp135HelBTm9yL2coeu1V1qevPpkP0bWqSLTuNpVbIkNbeoyXxdTa0apja1mOOxjiXh+WlKLjEWu/LP5WrdF3gcrDI0tC54UecXBm9bkvH+21v1+cPlatc7Sr7rTml0uZpmOo9H1+UrMftZJW75k84/+rWQzzfosyv7o1J1l5qmtejKRUnTiqRpgc8y9o37dO3Wv4cOf3WOlP1D47t1/dRtmtuUGnGdY0p85C7FWj9vmd/J4jd18Z6JlmXfUbK+qPZfvabL44314vPNZcpWK/W/t+rziy2Rx1d/RMP0RSm7WO27iwKf6zf/u/TNwJgSMzLCHnsStjyr5IIX9XnmBl279z+FvM+E56eFfg/tljFOKwr+Pb5ulvTzN419m78rbf7PgGMgAAAAAPS51GE+r4eAfoywHkMWB8d+ruxNadJUSfOl7Gd17YuTpa/FSSpW8l1vGuG33dKE4O81MUaKr1XqD/9BmjPFZd2HlWoNwsNVPifGSIpT8jCf8/6t4iUl+sdjHmr/ZZoSghYqDGwrMUaKjzeWX31IWm20kklI8ilh9SFjYlrJoaf6DSHjTa3dLOnN0Pc66XFdO8wn6Q5py+PSkn9Qgr9X+6fVtvc2WXqwUFq9R6mr77C9H+t4j0vb3pTmvRRY194CaOlb0i6XSvBt9+jau34eeByux7okzXlGmiNd676EMfb/MO5ECPq87e+h88kYKdmnxGF1xt0ND05W6jBJSXFSbLz5mUXwabWkG6UHb1Tclt8oYY7td6h2r1Q1VXrqDmPbblYb475220bnfdvfw/G/S7HfCDNGywS65mcbJyk18jsCAAAAAAB9jLAeQP9Tu1l625xQdouMHvbr75Fqpsho37HMaKmyJEwbldJVgUlmt7wh1a4KDeKtbXD6glMbnC4xWwN9zSX49gf5s6SwE8xKRmuaec9KT292vziRd4ekh6TSMD3la3dLR6dKqy2foX/OAfvYnb4z//wCEVlC5yD+9xnpdZO1DU7n92Frg2NtPxNtG5yaw9Kk+UaP/3dypG1zglvVdGeSWbd2P0ttj7OzQ5cJmmTZ9PZDzvMoDLZ5AwAAAAAAGKAI6wH0P/5gU38KPLfyDXOCWUnKkpYUBk+A6q/mXvqWVHWnpJekpYeNMD5DUm2fvoPeUbrJCMa7EviGs/Ilae4vjb70kjTpBtsCs6V5MiZNdeMWQjuFxVL3+rBbhb3gMdW4MOMfS+mqwB0JQfuROQGuJM025gOo3SwteTZ4+/YLHK6qpd2V0pznjIffeVxa8pg0yxxL6aquTzIrRe5v758rYKklrLf+/2DpY5EvRnXrohEAAAAAAOgNhPUA+p/sx6VFs6XSP7kvk7dM2nJnoPJ43kvSLn8oaU7Guu2XgeVrDkvZd4S2aJG12riXK4xDgurC6Nf1h99L33IJ6yNU3TuaHfjM3C5mrDQ/y/URXrezV8y7tOwxtp0jZXZl3D3JrPg/WmhO4mu9A2BddBPgdt5dYL6HjAelpz+WlqySdt1hTBjr+r11UemqwAS0khHoL8qy3CViuathWw/sDwAAAAAA9BnCegD9z6Jw1cR+WdLqx0OroR35K5+zjUDbqYrbqQq7p3WpDU6VdNT8cds9RuuWLYeCA9+8O6TVDwUuWEx63Nh+d+4iqDksyV5Z30NKV0mrD0tbnC6E+C8y9M6uQ/eTZfwsSTWbpdX+NjPF0lxLCB50YSXCRRynuwvy1klL7zG26Q/Ue0LeOuexVFU6t8MBAAAAAAADBmE9gAHIrH6e85ZRwbw6J3wbFWvlc1XfjrRbOsP5t6Snc4z36ThBq9nCxZEtfJbC9F83L2Zkf6/7Y3bk7yNfKO16w3kR/3fTU619XFWF7ifzQWmX/cKQS299N44tbvzV+pLmFUpvPyuVPhjd9jrHNqULC5vtcJ726u4EAAAAAADQEwjrAQwwZgjdGc6vMyaiXX2n9LKtArrK7Jlur3y2TjIaxGxL49ZvXZJUGRqCW817KdAj3L4fp37t1m3N849bgd7rmw4Z45nrNh6H/X9HCj/BrCVM7lQobTLHHdIqyM/+uTlMWDrpceOOgdXF5hhsFxP8veGtutIiJmwrIdtEsdbXS/9kTADbkxcFajeHtrjxf3bzXgp8nivXGc+vVhR3gZjsbZ4imfeS83ZdJ5W16kI7JgAAAAAA0GsI6wEMHO8UB4fhfnnrjN7gcx+S1t8hZf8yELY/LWl1oaWfvSK3wbH3W++uaCdNlcye4+bPK21V6F0ez2xpl+2poP7rWcZFADfWvufd5dY2JsOpmr0LujvBbM1haUkPz0fgvwi0KCvQSz5o7gQL/2fqD+2dfo+DRPiOohVpP0wwCwAAAABAvxHT0dHR4fUgAAAAAAAAAAAYymK9HgAAAAAAAAAAAEMdYT0AAAAAAAAAAB4jrAcAAAAAAAAAwGOE9QAAAAAAAAAAeIywHgAAAAAAAAAAjxHWAwAAAAAAAADgMcJ6AAAAAAAAAAA8RlgPAAAAAAAAAIDHCOsBAAAAAAAAAPAYYT0AAAAAAAAAAB4jrAcAAAAAAAAAwGOE9QAAAAAAAAAAeIywHgAAAAAAAAAAjxHWAwAAAAAAAADgMcJ6AAAAAAAAAAA8RlgPAAAAAAAAAIDHCOsBAAAAAAAAAPBYvNcDAAAAgLfa2tpUVVWl06dP6/Lly14Px1OJiYkaNWqUsrOzFRcXF/V6ze2t+rdPyvTH00d1obWlF0fY/6XE+/T1UZP0o+tnKimW/9wAAAAAohXT0dHR4fUgAAAA4I22tjZ98MEHSktL0/jx45WcnOz1kDzV1NSk+vp6NTY26uabb44qsG9ub9W3DvwPNVy+qJb2tj4YZf/ni41TeuIw/faW/0xgDwAAAESJNjgAAABDWFVVldLS0nTDDTcM+aBekpKTk3XDDTcoLS1NVVVVUa3zb5+UEdTbtLS3qeHyRf3bJ2VeDwUAAAAYMAjrAQAAhrDTp09r/PjxXg+j3xk/frxOnz4d1bJ/PH2UoN5BS3ub/nj6qNfDAAAAAAYMwnoAAIAh7PLly1TUO0hOTo66f/9Q71EfDp8NAAAAED3CegAAAAAAAAAAPEZYDwAAAAAAAACAxwjrAQAAAAAAAADwGGE9AAAAAAAAAAAeI6wHAAAAAAAAAMBjhPUAAAAAAAAAAHgs3usBAAAAYBA4uVNFT+3QCccXp2vFxhWa3qUNHtSG5TuU+ZMizR9jbv9X0vKfzNfYzv3VaEHndg9qw/IyzezyfgaOp279rgr1kW5+f+9VbWdx7mI96qu66u0AAAAA6FmE9QAAALh6Y+ar6CcKDtD9gfpPMrVj+XJtcFht+oqNWuGUrp8cowUrxqjoqeWqWbFRK6bP1/LbilS0vMYh+D+oDcs36OCtC7TgpKQxPf/2+ka+ivNvVHbQc+dUvPcNVeUuVuE1knSjPsi/sfPVqob/UOHhru1l65lPtfT6G7U395zyKyquftgAAAAAegRhPQAAAHrXmPlacOsO7RhfpKJvjDWfPKGdT22UxrqtM1Zjx6zQxhUbtHzDBh3cuELTv1GkFfXLteMPJzT91sCiJ/6wQyfvKtLGb7htbKDYq8K9eyXlatOXZ2rUZ0YQ/9St39Wj+kg37w1Uwj9163c1r6UsQlDvFP5bDJ+pD/Jn2p40Lg785KreBwAAAIDuIKwHAABADzqoDcuXWx4bNfBjxo/VifqTCqTzJ1VzcoxmulTBn/hDkYrqF2jjshXauNGytWUbzar9g53Pjf1GkYp68B14bnyGcuLP6e3DRssap4p6SdI1ZtjeelzP/3WntjpurEXvfrJVy+qj2e987b3+mqsdPQAAAIBuIqwHAABAD7L0pzfb4EjS2HFjpHdP6ISmG3H9wTIdHJOpBW6bufU2TX9zg5YvN7fn0hPffmGg673x+5/F142Uzh00qtsrtmqr8lWcn63Tn2zVsvrgqntNuUcffMFtS/5K/SjV71R+NKE+AAAAgF5BWA8AAIDeN32mpm8ok7+2/sTxkxp72wLXLjhjx8zXio3TtfOpIkvbm3BhvDHB7MCXq69c61NKvLVq/kK3trQ4d7EeHe7r8noXzpXRyx4AAADwAGE9AAAAepBzGxxpjDLHHFTZQWn69BM6+K502z9F6jE/VvN/slHzJbPtjX3bdtNl78A+4Ey5UbfFmxPHylo179Nt139XH1xvPkz/rj5IN39uveS4qa0VW11a49iq8wEAAAD0C4T1AAAA6EHObXCksZr/f07X8vcOSirTDt2mIpd+9QEHtWH5DmX+pMgI7Ad9ZX2uNn1huMtr/t7zXWmD42dto9OzIwYAAADQcwjrAQAA0Demz9T0DRu0/H1p+ooVri1wOp08oZMyJ6E92Qfj89r4DOW0HNe7GqdRPbrdFI1s/VTFtqA+21qdb6IFDgAAAOAdwnoAAAD0sIPasHyDDpqPNixfLt26QhuXTdfMW6WD70/XzChmgT3x/rs6cesCSyX9IG+DU79T+fW52vTlccHPj0/RSPmU3cU2OH6LrxupFH0a8nxVA21wAAAAgP6EsB4AAABX7+AGLd9gxPMblksrNm7UCrMNzoKNKzRdJ7TzqeXaoQVacde72vDUThX9ZH6Y6voTOvjuCY29zdorZ7C3wQnITv+uPpCk1kvKvm6kUlqP6/m/7tRWe7/5SG1wxs/X0uE+SeO0NDdXW6maBwAAAPotwnoAAABcvekrtHGjy2snd6roqR06MWaBGdDP14r65SpaXhMmfD+pmpNjddutEZvlmIufGFSdcgJV7/kqzh+nC+dqXSaLDSdfxdePk86V6eaK4SrOn6kPvpyh5/9a2+PjBQAAAHD1COsBAADQiw5qw1MHNfauIm38RiB4n75so4r+UKSi5RucA/uDZTro71fvuulANb8kacwCRZyztt+r0LK/Wqrfp6Qru/W4ng+piM9Xcf6NypZ04dxHjkH+U7feqOxLH+lmc93CvXu1OHexHs032+w49KyXJF36SDe/v7cH3gsAAACArojp6Ojo8HoQAAAA8EZJSYkKCgq8Hka/FO1nc/Pe/+iD0QxcH+R/1+shAAAAAANCrNcDAAAAAAAAAABgqCOsBwAAAAAAAADAY4T1AAAAAAAAAAB4jLAeAAAAAAAAAACPEdYDAAAAAAAAAOAxwnoAAAAAAAAAADxGWA8AADCEJSYmqqmpyeth9DtNTU1KTEyMatmUeF8vj2bg4rMBAAAAokdYDwAAMISNGjVK9fX1Xg+j36mvr9eoUaOiWvbroybJFxvXyyMaeHyxcfr6qEleDwMAAAAYMAjrAQAAhrDs7Gw1Njbq448/psJeRkX9xx9/rMbGRmVnZ0e1zo+un6n0xGEE9ha+2DilJw7Tj66f6fVQAAAAgAEjpqOjo8PrQQAAAMA7bW1tqqqq0unTp3X58mWvh+OpxMREjRo1StnZ2YqLiz58b25v1b99UqY/nj6qC60tvTjC/i8l3qevj5qkH10/U0mx8V4PBwAAABgwCOsBAAAAAAAAAPAYbXAAAAAAAAAAAPAYYT0AAAAAAAAAAB4jrAcAAAAAAAAAwGOE9QAAAAAAAAAAeIywHgAAAAAAAAAAjxHWAwAAAAAAAADgMcJ6AAAAAAAAAAA8RlgPAAAAAAAAAIDHCOsBAAAAAAAAAPAYYT0AAAAAAAAAAB4jrAcAAAAAAAAAwGOE9QAAAAAAAAAAeIywHgAAAAAAAAAAjxHWAwAAAAAAAADgMcJ6AAAAAAAAAAA8RlgPAAAAAAAAAIDHCOsBAAAAAAAAAPAYYT0AAAAAAAAAAB4jrAcAAAAAAAAAwGOE9QAAAAAAAAAAeIywHgAAAAAAAAAAjxHWAwAAAAAAAADgMcJ6AAAAAAAAAAA8RlgPAAAAAAAAAIDH/n90cfGAZzCGYwAAAABJRU5ErkJggg==;" vertex="1" parent="1">
          <mxGeometry x="200" y="440" width="1286.15" height="680" as="geometry" />
        </mxCell>
        <mxCell id="ahwBtEAhp_Now27oy8xf-18" style="edgeStyle=orthogonalEdgeStyle;rounded=0;orthogonalLoop=1;jettySize=auto;html=1;exitX=1;exitY=0.5;exitDx=0;exitDy=0;entryX=0;entryY=0.5;entryDx=0;entryDy=0;" edge="1" parent="1" source="ahwBtEAhp_Now27oy8xf-17" target="ahwBtEAhp_Now27oy8xf-19">
          <mxGeometry relative="1" as="geometry">
            <mxPoint x="530" y="55" as="targetPoint" />
          </mxGeometry>
        </mxCell>
        <mxCell id="ahwBtEAhp_Now27oy8xf-17" value="应用" style="rounded=1;whiteSpace=wrap;html=1;" vertex="1" parent="1">
          <mxGeometry x="410" y="30" width="70" height="50" as="geometry" />
        </mxCell>
        <mxCell id="ahwBtEAhp_Now27oy8xf-32" style="edgeStyle=orthogonalEdgeStyle;rounded=0;orthogonalLoop=1;jettySize=auto;html=1;exitX=1;exitY=0.25;exitDx=0;exitDy=0;entryX=0;entryY=0.5;entryDx=0;entryDy=0;" edge="1" parent="1" source="ahwBtEAhp_Now27oy8xf-19" target="ahwBtEAhp_Now27oy8xf-30">
          <mxGeometry relative="1" as="geometry" />
        </mxCell>
        <mxCell id="ahwBtEAhp_Now27oy8xf-33" style="edgeStyle=orthogonalEdgeStyle;rounded=0;orthogonalLoop=1;jettySize=auto;html=1;exitX=1;exitY=0.75;exitDx=0;exitDy=0;entryX=0;entryY=0.5;entryDx=0;entryDy=0;" edge="1" parent="1" source="ahwBtEAhp_Now27oy8xf-19" target="ahwBtEAhp_Now27oy8xf-31">
          <mxGeometry relative="1" as="geometry" />
        </mxCell>
        <mxCell id="ahwBtEAhp_Now27oy8xf-19" value="变更" style="rounded=1;whiteSpace=wrap;html=1;" vertex="1" parent="1">
          <mxGeometry x="530" y="27.5" width="110" height="55" as="geometry" />
        </mxCell>
        <mxCell id="ahwBtEAhp_Now27oy8xf-37" style="edgeStyle=orthogonalEdgeStyle;rounded=0;orthogonalLoop=1;jettySize=auto;html=1;exitX=1;exitY=0.5;exitDx=0;exitDy=0;entryX=0;entryY=0.5;entryDx=0;entryDy=0;" edge="1" parent="1" source="ahwBtEAhp_Now27oy8xf-30" target="ahwBtEAhp_Now27oy8xf-35">
          <mxGeometry relative="1" as="geometry" />
        </mxCell>
        <mxCell id="ahwBtEAhp_Now27oy8xf-30" value="apk1" style="rounded=1;whiteSpace=wrap;html=1;" vertex="1" parent="1">
          <mxGeometry x="700" y="-10" width="110" height="55" as="geometry" />
        </mxCell>
        <mxCell id="ahwBtEAhp_Now27oy8xf-38" style="edgeStyle=orthogonalEdgeStyle;rounded=0;orthogonalLoop=1;jettySize=auto;html=1;exitX=1;exitY=0.5;exitDx=0;exitDy=0;entryX=0;entryY=0.5;entryDx=0;entryDy=0;" edge="1" parent="1" source="ahwBtEAhp_Now27oy8xf-31" target="ahwBtEAhp_Now27oy8xf-36">
          <mxGeometry relative="1" as="geometry" />
        </mxCell>
        <mxCell id="ahwBtEAhp_Now27oy8xf-31" value="apk2" style="rounded=1;whiteSpace=wrap;html=1;" vertex="1" parent="1">
          <mxGeometry x="700" y="60" width="110" height="55" as="geometry" />
        </mxCell>
        <mxCell id="ahwBtEAhp_Now27oy8xf-35" value="发布单1" style="rounded=1;whiteSpace=wrap;html=1;" vertex="1" parent="1">
          <mxGeometry x="870" y="-10" width="110" height="55" as="geometry" />
        </mxCell>
        <mxCell id="ahwBtEAhp_Now27oy8xf-36" value="发布单2" style="rounded=1;whiteSpace=wrap;html=1;" vertex="1" parent="1">
          <mxGeometry x="870" y="60" width="110" height="55" as="geometry" />
        </mxCell>
      </root>
    </mxGraphModel>
  </diagram>
</mxfile>
